<svg width="21" height="22" viewBox="0 0 21 22" fill="none" xmlns="http://www.w3.org/2000/svg">
<path d="M6.7 11H14.3M6.7 14.75H10.5M6.7 7.25H14.3M3.28 1H17.72C18.3247 1 18.9046 1.31607 19.3322 1.87868C19.7598 2.44129 20 3.20435 20 4V18C20 18.7956 19.7598 19.5587 19.3322 20.1213C18.9046 20.6839 18.3247 21 17.72 21H3.28C2.67531 21 2.09538 20.6839 1.6678 20.1213C1.24021 19.5587 1 18.7956 1 18V4C1 3.20435 1.24021 2.44129 1.6678 1.87868C2.09538 1.31607 2.67531 1 3.28 1Z" stroke="#333333" stroke-width="1.5" stroke-miterlimit="10" stroke-linecap="round" stroke-linejoin="round"/>
</svg>
