<svg width="36" height="36" viewBox="0 0 36 36" fill="none" xmlns="http://www.w3.org/2000/svg">
<path d="M32.348 13.9989C32.348 13.9989 35.793 5.18695 33.999 2.00095C33.395 0.927947 25.999 3.99895 23.276 7.44295C23.276 7.44295 20.69 6.58295 18 6.58295C15.31 6.58295 12.724 7.44295 12.724 7.44295C10.001 3.99895 2.60501 0.927947 2.00101 2.00095C0.207011 5.18695 3.65201 13.9989 3.65201 13.9989C2.75501 15.7209 2.41901 18.3439 2.09701 21.1589C1.74301 24.2449 2.44701 26.7049 2.75501 27.2479C3.10501 27.8649 4.87801 29.8529 7.23901 31.5539C10.826 34.1369 16.206 34.9989 18 34.9989C19.794 34.9989 25.174 34.1379 28.761 31.5539C31.122 29.8529 32.895 27.8649 33.245 27.2479C33.553 26.7049 34.257 24.2449 33.904 21.1589C33.58 18.3449 33.245 15.7209 32.348 13.9989Z" fill="#FFCC4D"/>
<path d="M2.35899 2.97104C2.55899 2.37204 7.707 5.14404 8.877 8.37504C8.877 8.37504 5.06899 10.999 4.34899 12.999C4.34899 12.999 1.35899 5.97104 2.35899 2.97104Z" fill="#F18F26"/>
<path d="M5.98001 7.26101C5.98001 5.84701 11.437 9.99401 10.437 10.994C9.43701 11.994 9.18201 11.714 8.18201 12.714C7.18201 13.714 5.98001 8.26101 5.98001 7.26101Z" fill="#FFCC4D"/>
<path d="M33.641 2.97104C33.441 2.37204 28.293 5.14404 27.123 8.37504C27.123 8.37504 30.931 10.999 31.651 12.999C31.651 12.999 34.641 5.97104 33.641 2.97104Z" fill="#F18F26"/>
<path d="M30.02 7.26101C30.02 5.84701 24.563 9.99401 25.563 10.994C26.563 11.994 26.818 11.714 27.818 12.714C28.818 13.714 30.02 8.26101 30.02 7.26101Z" fill="#FFCC4D"/>
<path d="M14.001 20.001C14.0095 20.2688 13.9641 20.5356 13.8674 20.7856C13.7708 21.0355 13.6249 21.2635 13.4384 21.4559C13.252 21.6484 13.0287 21.8014 12.782 21.9059C12.5352 22.0104 12.27 22.0642 12.002 22.0642C11.734 22.0642 11.4688 22.0104 11.2221 21.9059C10.9753 21.8014 10.7521 21.6484 10.5656 21.4559C10.3792 21.2635 10.2333 21.0355 10.1366 20.7856C10.04 20.5356 9.99454 20.2688 10.003 20.001C10.0229 19.4844 10.2421 18.9955 10.6146 18.637C10.9871 18.2784 11.484 18.0781 12.001 18.0779C12.5181 18.0778 13.015 18.2779 13.3877 18.6363C13.7604 18.9946 13.9799 19.4834 14 20M25.998 20C26.0065 20.2678 25.9611 20.5346 25.8644 20.7846C25.7678 21.0345 25.6219 21.2625 25.4354 21.4549C25.249 21.6474 25.0257 21.8004 24.779 21.9049C24.5322 22.0094 24.267 22.0632 23.999 22.0632C23.731 22.0632 23.4658 22.0094 23.2191 21.9049C22.9723 21.8004 22.7491 21.6474 22.5626 21.4549C22.3762 21.2625 22.2303 21.0345 22.1336 20.7846C22.037 20.5346 21.9915 20.2678 22 20C22.0164 19.4808 22.2342 18.9883 22.6073 18.6268C22.9804 18.2654 23.4795 18.0632 23.999 18.0632C24.5185 18.0632 25.0176 18.2654 25.3907 18.6268C25.7638 18.9883 25.9816 19.4808 25.998 20Z" fill="#292F33"/>
<path d="M2.201 30.458C2.09721 30.4579 1.99601 30.4256 1.91145 30.3654C1.82689 30.3052 1.76316 30.2202 1.72909 30.1222C1.69501 30.0241 1.6923 29.9179 1.72131 29.8183C1.75032 29.7186 1.80963 29.6304 1.891 29.566C2.053 29.439 5.911 26.446 12.539 26.961C12.671 26.9712 12.7936 27.0334 12.8798 27.1339C12.9661 27.2344 13.0089 27.365 12.999 27.497C12.978 27.772 12.742 27.998 12.462 27.957C6.229 27.483 2.547 30.323 2.511 30.352C2.4225 30.4212 2.3133 30.4585 2.201 30.458ZM11.069 25.795C11.0185 25.7953 10.9683 25.7878 10.92 25.773C6.13 24.276 2.183 25.426 2.143 25.437C2.08016 25.4559 2.01421 25.4623 1.94892 25.4557C1.88363 25.4491 1.82027 25.4298 1.76247 25.3987C1.70466 25.3676 1.65354 25.3255 1.61203 25.2747C1.57051 25.2239 1.53941 25.1654 1.5205 25.1025C1.50159 25.0397 1.49524 24.9737 1.50181 24.9084C1.50839 24.8432 1.52776 24.7798 1.55882 24.722C1.58988 24.6642 1.63203 24.6131 1.68284 24.5715C1.73366 24.53 1.79216 24.4989 1.855 24.48C2.028 24.428 6.141 23.233 11.217 24.818C11.3308 24.8538 11.4281 24.9291 11.4913 25.0303C11.5544 25.1315 11.5793 25.252 11.5615 25.3699C11.5436 25.4879 11.4841 25.5956 11.3938 25.6735C11.3035 25.7515 11.1883 25.7946 11.069 25.795ZM33.799 30.458C33.9028 30.4579 34.004 30.4256 34.0885 30.3654C34.1731 30.3052 34.2368 30.2202 34.2709 30.1222C34.305 30.0241 34.3077 29.9179 34.2787 29.8183C34.2497 29.7186 34.1904 29.6304 34.109 29.566C33.947 29.439 30.089 26.446 23.461 26.961C23.329 26.9712 23.2064 27.0334 23.1202 27.1339C23.0339 27.2344 22.9911 27.365 23.001 27.497C23.023 27.772 23.258 27.998 23.538 27.957C29.771 27.483 33.453 30.323 33.489 30.352C33.582 30.422 33.691 30.458 33.799 30.458ZM24.931 25.795C24.981 25.795 25.0307 25.7877 25.08 25.773C29.87 24.276 33.817 25.426 33.857 25.437C33.9198 25.4559 33.9858 25.4623 34.0511 25.4557C34.1164 25.4491 34.1797 25.4298 34.2375 25.3987C34.2953 25.3676 34.3464 25.3255 34.388 25.2747C34.4295 25.2239 34.4606 25.1654 34.4795 25.1025C34.4984 25.0397 34.5048 24.9737 34.4982 24.9084C34.4916 24.8432 34.4722 24.7798 34.4412 24.722C34.4101 24.6642 34.368 24.6131 34.3172 24.5715C34.2663 24.53 34.2078 24.4989 34.145 24.48C33.972 24.428 29.859 23.233 24.783 24.818C24.6692 24.8538 24.5719 24.9291 24.5087 25.0303C24.4456 25.1315 24.4207 25.252 24.4385 25.3699C24.4564 25.4879 24.5159 25.5956 24.6062 25.6735C24.6965 25.7515 24.8117 25.7946 24.931 25.795Z" fill="#FEE7B8"/>
<path d="M24.736 30.898C24.6897 30.7738 24.596 30.673 24.4754 30.6179C24.3548 30.5627 24.2173 30.5577 24.093 30.604C23.541 30.81 23.017 30.915 22.534 30.915C21.382 30.915 20.973 30.609 20.501 30.256C20.05 29.918 19.545 29.541 18.511 29.453V27.114C18.511 26.9814 18.4583 26.8542 18.3646 26.7605C18.2708 26.6667 18.1436 26.614 18.011 26.614C17.8784 26.614 17.7512 26.6667 17.6575 26.7605C17.5637 26.8542 17.511 26.9814 17.511 27.114V29.487C16.701 29.602 16.165 29.926 15.695 30.23C15.127 30.597 14.636 30.915 13.612 30.915C13.13 30.915 12.606 30.811 12.054 30.604C11.9311 30.5638 11.7974 30.5726 11.6808 30.6287C11.5643 30.6848 11.4739 30.7838 11.4287 30.905C11.3835 31.0262 11.3869 31.1602 11.4382 31.2789C11.4895 31.3976 11.5848 31.4919 11.704 31.542C12.368 31.789 13.01 31.915 13.611 31.915C14.93 31.915 15.625 31.466 16.238 31.07C16.762 30.731 17.218 30.439 18.086 30.435C19.078 30.443 19.444 30.713 19.901 31.056C20.439 31.459 21.048 31.915 22.534 31.915C23.135 31.915 23.778 31.789 24.442 31.542C24.5036 31.5191 24.5602 31.4842 24.6083 31.4395C24.6565 31.3947 24.6953 31.3408 24.7226 31.281C24.7499 31.2212 24.7652 31.1566 24.7675 31.0908C24.7698 31.0251 24.7591 30.9596 24.736 30.898Z" fill="#67757F"/>
<path d="M19.4 24.807H16.6C15.96 24.807 15.437 25.33 15.437 25.97C15.437 26.609 15.96 27.133 16.6 27.133H16.837V27.478C16.837 28.117 17.36 28.641 18 28.641C18.64 28.641 19.163 28.118 19.163 27.478V27.133H19.4C20.039 27.133 20.563 26.61 20.563 25.97C20.563 25.33 20.039 24.807 19.4 24.807Z" fill="#E75A70"/>
<path d="M18.022 17.154C17.8894 17.154 17.7622 17.1013 17.6684 17.0075C17.5747 16.9138 17.522 16.7866 17.522 16.654V8.37C17.522 8.23739 17.5747 8.11021 17.6684 8.01644C17.7622 7.92267 17.8894 7.87 18.022 7.87C18.1546 7.87 18.2818 7.92267 18.3755 8.01644C18.4693 8.11021 18.522 8.23739 18.522 8.37V16.654C18.522 16.931 18.299 17.154 18.022 17.154ZM21 15.572C20.8674 15.572 20.7402 15.5193 20.6464 15.4255C20.5527 15.3318 20.5 15.2046 20.5 15.072C20.5 12.19 21.732 9.862 21.785 9.764C21.8485 9.64862 21.955 9.56296 22.0813 9.52563C22.2076 9.48829 22.3435 9.50229 22.4595 9.56459C22.5756 9.62689 22.6623 9.73245 22.701 9.85835C22.7396 9.98425 22.7271 10.1203 22.666 10.237C22.654 10.258 21.5 12.45 21.5 15.072C21.5 15.2046 21.4473 15.3318 21.3535 15.4255C21.2598 15.5193 21.1326 15.572 21 15.572ZM15 15.572C14.8674 15.572 14.7402 15.5193 14.6464 15.4255C14.5527 15.3318 14.5 15.2046 14.5 15.072C14.5 12.449 13.345 10.258 13.333 10.237C13.2801 10.1212 13.2732 9.98959 13.3138 9.86892C13.3545 9.74825 13.4395 9.64757 13.5517 9.58735C13.6639 9.52712 13.7947 9.51186 13.9178 9.54467C14.0408 9.57748 14.1467 9.6559 14.214 9.764C14.267 9.862 15.499 12.19 15.499 15.072C15.499 15.2044 15.4464 15.3315 15.3529 15.4252C15.2593 15.5189 15.1324 15.5717 15 15.572Z" fill="#F18F26"/>
</svg>
