<svg width="20" height="20" viewBox="0 0 20 20" fill="none" xmlns="http://www.w3.org/2000/svg">
<path d="M13.6667 13.5917V5.66667C13.6667 5.22464 13.4911 4.80072 13.1785 4.48816C12.866 4.17559 12.442 4 12 4H3.66667C3.22464 4 2.80072 4.17559 2.48816 4.48816C2.17559 4.80072 2 5.22464 2 5.66667V13.1667C2 13.3877 2.0878 13.5996 2.24408 13.7559C2.40036 13.9122 2.61232 14 2.83333 14H3.425C3.58744 13.6291 3.85445 13.3136 4.19337 13.092C4.53228 12.8705 4.92842 12.7525 5.33333 12.7525C5.73825 12.7525 6.13438 12.8705 6.4733 13.092C6.81222 13.3136 7.07922 13.6291 7.24167 14H13.425C13.4861 13.8528 13.5667 13.7167 13.6667 13.5917ZM13.6667 13.5917C13.8832 13.2979 14.1734 13.0665 14.508 12.9207C14.8426 12.7749 15.2097 12.72 15.5723 12.7614C15.9349 12.8028 16.2802 12.9391 16.5733 13.1566C16.8664 13.374 17.0969 13.665 17.2417 14H18.6667V11.5917C18.667 10.987 18.5028 10.3935 18.1917 9.875L17.1667 8.16667L16.4083 6.90833C16.3346 6.78394 16.2297 6.68087 16.1041 6.60928C15.9784 6.53769 15.8363 6.50003 15.6917 6.5H13.6667V13.5917Z" stroke="white" stroke-width="1.5" stroke-linecap="round" stroke-linejoin="round"/>
<path d="M9.5 9.83334H5.33333M9.5 7.33334H5.33333M7.41667 14.8333C7.41703 15.1433 7.34824 15.4494 7.21532 15.7293C7.0824 16.0093 6.88869 16.2561 6.6483 16.4517C6.40792 16.6473 6.12692 16.7868 5.82578 16.8601C5.52465 16.9333 5.21096 16.9385 4.90758 16.8752C4.6042 16.8118 4.31877 16.6816 4.0721 16.494C3.82543 16.3064 3.62372 16.0661 3.48168 15.7906C3.33964 15.5152 3.26085 15.2115 3.25104 14.9017C3.24124 14.5919 3.30067 14.2839 3.425 14C3.61684 13.562 3.95352 13.2033 4.37852 12.9841C4.80353 12.765 5.29099 12.6987 5.75909 12.7964C6.22718 12.8942 6.64741 13.1499 6.94923 13.5208C7.25106 13.8917 7.4161 14.3552 7.41667 14.8333ZM17.4167 14.8333C17.417 15.1433 17.3482 15.4494 17.2153 15.7293C17.0824 16.0093 16.8887 16.2561 16.6483 16.4517C16.4079 16.6473 16.1269 16.7868 15.8258 16.8601C15.5246 16.9333 15.211 16.9385 14.9076 16.8752C14.6042 16.8118 14.3188 16.6816 14.0721 16.494C13.8254 16.3064 13.6237 16.0661 13.4817 15.7906C13.3396 15.5152 13.2608 15.2115 13.251 14.9017C13.2412 14.5919 13.3007 14.2839 13.425 14C13.4861 13.8528 13.5667 13.7167 13.6667 13.5917C13.8832 13.2979 14.1734 13.0665 14.508 12.9207C14.8426 12.7749 15.2097 12.72 15.5723 12.7614C15.9349 12.8028 16.2802 12.9391 16.5733 13.1566C16.8664 13.3741 17.0969 13.665 17.2417 14C17.3583 14.2625 17.4183 14.5467 17.4167 14.8333Z" stroke="white" stroke-width="1.5" stroke-linecap="round" stroke-linejoin="round"/>
</svg>
