<svg width="37" height="36" viewBox="0 0 37 36" fill="none" xmlns="http://www.w3.org/2000/svg">
<path d="M16.8554 3.0487C16.8554 3.0487 17.7019 3.31308 18.0085 3.45089L25.5572 11.4103C25.5572 11.4103 25.8216 11.7731 26.4038 11.9475L26.1591 14.324L21.33 15.4406L14.5097 10.454L13.2329 5.26776L16.8554 3.0487ZM2.05036 13.4887C2.05036 13.4887 1.86193 11.8912 2.14036 10.6537L8.55286 3.35526C8.55286 3.35526 8.78911 3.19776 9.74255 2.9812L12.4341 4.07245L11.5172 11.6915L3.89818 17.834L2.05036 13.4887Z" fill="#855C52"/>
<path d="M27.0711 11.9512L27.0719 11.9516C27.8366 12.3565 28.5312 12.8856 29.0956 13.5303C31.0034 13.9497 32.4149 13.4078 34.1727 12.5662C34.2116 12.5472 34.2571 12.5234 34.3073 12.4971C34.4443 12.4254 34.6156 12.3356 34.7799 12.2775C35.0157 12.1941 35.3104 12.1451 35.5987 12.2929C35.8461 12.4188 35.9812 12.6414 36.048 12.8757C36.1138 13.1064 36.1197 13.3668 36.0989 13.6132C36.0572 14.1069 35.9024 14.6129 35.7993 14.8743L35.7993 14.8744C35.3553 15.9979 34.4341 16.791 33.2669 17.1372L33.2668 17.1373C32.5289 17.3556 31.7213 17.3848 30.9521 17.2434C31.3107 18.5599 31.4797 19.941 31.5693 21.291M27.0711 11.9512L31.3311 25.5713L31.5806 25.5871C31.6713 24.15 31.6657 22.7274 31.5693 21.291M27.0711 11.9512L27.0526 11.9415C26.9466 11.8857 26.8118 11.8149 26.6698 11.7632C26.5191 11.7085 26.3376 11.6664 26.1474 11.6947L26.1474 11.6946M27.0711 11.9512L26.1474 11.6946M31.5693 21.291L31.3199 21.3076L31.5693 21.2908C31.5693 21.2909 31.5693 21.2909 31.5693 21.291ZM26.1474 11.6946L26.142 11.6955M26.1474 11.6946L26.142 11.6955M26.142 11.6955C26.0289 11.7149 25.9487 11.7713 25.8927 11.8255C25.8582 11.8589 25.8191 11.9074 25.7978 11.9338C25.7923 11.9406 25.788 11.946 25.7853 11.9492L25.7839 11.9508M26.142 11.6955L25.7839 11.9508M25.7839 11.9508C25.6745 12.0824 25.5761 12.2263 25.4857 12.3585C25.465 12.3887 25.4448 12.4182 25.425 12.4469C25.3142 12.607 25.2102 12.7472 25.0892 12.8636C24.8655 13.0752 24.5019 13.2391 24.1321 13.2936C24.1084 13.2954 24.0934 13.2969 24.0818 13.2981C24.0662 13.2997 24.057 13.3007 24.0411 13.3007C23.224 13.3007 22.6417 12.8857 22.1969 12.3116C21.7463 11.7301 21.4555 11.0085 21.2272 10.4397L21.2268 10.4388M25.7839 11.9508L21.2268 10.4388M21.2268 10.4388C21.2156 10.4112 21.2045 10.3838 21.1935 10.3566C21.1341 10.2099 21.0775 10.0699 21.0228 9.95059L21.0218 9.9485M21.2268 10.4388L21.0218 9.9485M21.0218 9.9485C20.6775 9.21536 20.0144 8.83992 19.1079 8.34248C19.0552 8.31321 19.0037 8.28488 18.9527 8.25689C18.8528 8.202 18.7552 8.14839 18.6559 8.09138L18.6547 8.09067M21.0218 9.9485L18.6547 8.09067M18.6547 8.09067C18.1002 7.77656 17.6816 7.45452 17.3636 7.10496L17.3634 7.10481M18.6547 8.09067L17.3634 7.10481M17.3634 7.10481C16.7467 6.42794 16.4778 5.63099 16.5613 4.72265L16.5614 4.72228M17.3634 7.10481L16.5614 4.72228M16.5614 4.72228C16.6112 4.17193 16.7922 3.64761 17.0705 3.17584L17.2337 2.89916M16.5614 4.72228L17.2337 2.89916M17.2337 2.89916L16.9254 2.80889M17.2337 2.89916L16.9254 2.80889M16.9254 2.80889C16.2927 2.62364 14.812 2.24194 13.2468 2.24194C11.8635 2.24194 10.4339 2.54292 9.67939 2.73939L9.35267 2.82446M16.9254 2.80889L9.35267 2.82446M9.35267 2.82446L9.52935 3.11215M9.35267 2.82446L9.52935 3.11215M9.52935 3.11215C9.82824 3.59883 10.0202 4.14991 10.0728 4.72528L9.52935 3.11215ZM5.58454 23.5187C3.09112 21.2883 1.97953 17.7271 1.80054 14.3063L1.8004 14.3036L1.80041 14.3036C1.78884 14.0258 1.7946 13.752 1.80018 13.4872L1.80025 13.4836L1.80662 13.1813L2.1023 13.2443C2.25967 13.2778 2.41716 13.298 2.58087 13.3007C3.40335 13.3 3.98867 12.8852 4.43486 12.3125C4.88698 11.7322 5.17833 11.012 5.40651 10.4436C5.47597 10.2658 5.54367 10.0947 5.61276 9.95042C5.95703 9.21809 6.61948 8.84008 7.52624 8.34246C7.5789 8.3132 7.63042 8.2849 7.68134 8.25693C7.78129 8.20202 7.87891 8.1484 7.97823 8.09138L7.97982 8.09047L7.97982 8.09047C8.53024 7.77984 8.94928 7.45509 9.26797 7.10756C9.88481 6.42778 10.1536 5.63067 10.0728 4.7253L5.58454 23.5187ZM5.58454 23.5187C6.0835 23.9661 6.6421 24.3374 7.22139 24.6653L7.22105 24.7031L7.21634 25.2031C7.21225 25.6219 7.20636 26.1924 7.19916 26.7992C7.18473 28.0143 7.16507 29.3699 7.14411 29.9469L7.14409 29.9476C7.13815 30.1243 7.11852 30.3363 7.09611 30.5783C7.08781 30.6679 7.07913 30.7616 7.07062 30.8592C7.03977 31.213 7.01252 31.6061 7.02239 31.9909C7.04149 32.736 7.20165 33.5632 7.88213 33.9554C8.61541 34.3785 9.70803 34.6204 10.7409 34.5721C11.7674 34.5242 12.8106 34.1842 13.362 33.3572L13.3624 33.3565C13.8179 32.6686 13.9018 31.844 13.9018 31.1091C13.9018 30.6998 13.9135 30.4151 13.9254 30.1264L13.9255 30.1263C13.9374 29.8364 13.9496 29.5424 13.9496 29.1207C13.9496 29.0302 13.9419 28.9241 13.9345 28.8222C13.9338 28.8125 13.9331 28.8029 13.9324 28.7933C13.9241 28.678 13.9165 28.5631 13.9165 28.4524C13.9165 28.341 13.9244 28.244 13.9429 28.165C13.9616 28.0856 13.9875 28.0398 14.0122 28.0141L14.0131 28.0131C14.0403 27.9845 14.0702 27.9703 14.1266 27.9639C14.1581 27.9604 14.1944 27.9598 14.2412 27.9608C14.254 27.9611 14.2693 27.9616 14.2859 27.9621C14.3208 27.9632 14.3614 27.9644 14.3971 27.9644C14.7073 27.9644 15.0213 27.9337 15.3169 27.9048C15.3381 27.9027 15.3593 27.9006 15.3804 27.8986L15.3816 27.8985C15.8139 27.8543 16.1019 27.8763 16.296 27.9363C16.4792 27.9929 16.5817 28.0837 16.6518 28.2026C16.7288 28.333 16.7755 28.5121 16.81 28.7597C16.8296 28.9005 16.843 29.0393 16.8576 29.1912C16.87 29.3206 16.8834 29.4595 16.9023 29.6174M5.58454 23.5187L25.077 25.6933C24.8442 25.7375 24.604 25.7289 24.3974 25.7216C24.3709 25.7206 24.3449 25.7197 24.3195 25.7189C24.0826 25.7115 23.889 25.7144 23.7147 25.7721L23.7142 25.7722C23.5309 25.8325 23.4347 25.9837 23.3872 26.2477C23.3636 26.3787 23.3555 26.5226 23.3521 26.6715C23.3511 26.7191 23.3505 26.7693 23.3499 26.82C23.3488 26.9175 23.3477 27.0166 23.343 27.1007C23.3248 27.4686 23.363 27.8213 23.4036 28.1955C23.4232 28.3758 23.4433 28.5611 23.4579 28.7556M16.9023 29.6174C16.9023 29.6173 16.9023 29.6172 16.9023 29.6172L17.1505 29.5876L16.9023 29.6174ZM16.9023 29.6174C16.9797 30.2664 16.9116 30.9019 16.8398 31.5728C16.8135 31.8186 16.7867 32.0692 16.7663 32.3269L16.7663 32.327C16.7108 33.0321 17.0166 33.5309 17.4899 33.8466C17.9469 34.1514 18.5499 34.2813 19.1154 34.3091L19.1155 34.3091C20.2841 34.3661 21.7736 34.2419 22.8567 33.6272L22.8573 33.6269C23.1563 33.4561 23.3656 33.2523 23.5019 33.0168C23.6376 32.7822 23.6912 32.5329 23.705 32.2861C23.7187 32.0423 23.6938 31.7913 23.6659 31.552C23.6611 31.5109 23.6562 31.4702 23.6514 31.4298C23.6273 31.2284 23.604 31.0341 23.5963 30.8377L23.5962 30.8374C23.5703 30.1992 23.5206 29.5612 23.4715 28.9308C23.467 28.8723 23.4624 28.8139 23.4579 28.7556M23.4579 28.7556C23.4579 28.7555 23.4579 28.7555 23.4579 28.7554L23.2086 28.7748L23.4579 28.7561C23.4579 28.7559 23.4579 28.7557 23.4579 28.7556ZM26.2663 29.2621L26.4036 29.0532L26.2661 29.262C26.2662 29.262 26.2662 29.2621 26.2663 29.2621ZM30.6764 17.185C30.65 17.0916 30.6227 16.9986 30.5943 16.906C30.6872 16.9312 30.7811 16.9538 30.8756 16.9736L30.6764 17.185ZM17.0155 32.3466C16.9199 33.5616 18.0421 34.006 19.1277 34.0594C20.2808 34.1157 21.7124 33.9891 22.7333 33.4098C23.5789 32.9269 23.4949 32.2257 23.4035 31.4622C23.3793 31.2607 23.3547 31.0549 23.3464 30.8476L17.0155 32.3466ZM15.2952 27.6557C15.3155 27.6537 15.3359 27.6517 15.3561 27.6498L13.6518 31.1091C13.6518 30.6946 13.6637 30.4058 13.6756 30.1167C13.6876 29.8271 13.6996 29.5373 13.6996 29.1207C13.6996 29.0398 13.6926 28.9429 13.685 28.8384C13.6597 28.4887 13.6282 28.0532 13.8318 27.841C13.9639 27.7018 14.1317 27.7071 14.3002 27.7124C14.3325 27.7134 14.3649 27.7144 14.3971 27.7144C14.6946 27.7144 14.9971 27.6849 15.2952 27.6557Z" fill="#F79329" stroke="#F5F5F5" stroke-width="0.5"/>
<mask id="path-3-inside-1_371_1951" fill="white">
<path d="M1.77182 12.1078C2.0137 12.2625 2.2837 12.361 2.58182 12.361H2.58745C2.63245 12.361 2.67463 12.3525 2.71682 12.3497C2.75338 12.3441 2.78432 12.3469 2.81245 12.3413C2.87151 12.33 2.92495 12.3103 2.97838 12.2935C2.99245 12.2878 3.00932 12.285 3.02057 12.2794C3.08807 12.2541 3.15276 12.2203 3.21182 12.181H3.21463C4.03026 11.6747 4.43245 10.2544 4.76151 9.55408C5.3212 8.36158 6.44338 7.88346 7.51213 7.27877C7.91995 7.04814 8.28838 6.78377 8.57245 6.47721C8.9662 6.04408 9.19682 5.50971 9.13776 4.81502V4.80939C9.12651 4.66877 9.1012 4.53377 9.06745 4.40158C9.05057 4.33408 9.02245 4.26939 9.00276 4.20189C8.98307 4.14283 8.9662 4.08377 8.9437 4.02752C8.90432 3.93189 8.85651 3.83908 8.80588 3.74908C8.79463 3.72658 8.78338 3.70408 8.77213 3.68439C8.70995 3.57725 8.64139 3.47394 8.56682 3.37502C8.56401 3.36939 8.55838 3.36658 8.55557 3.36377C8.46557 3.24564 8.36713 3.13596 8.26026 3.03189L8.22932 3.00096C8.13088 2.90533 8.0212 2.81814 7.9087 2.73658L7.84682 2.69158C7.74557 2.62408 7.63588 2.56221 7.5262 2.50596C7.48963 2.48908 7.4587 2.46658 7.42495 2.45252C7.30401 2.39908 7.17745 2.35408 7.05088 2.31752C7.02838 2.30908 7.00588 2.29783 6.98338 2.29221C6.7162 2.22471 6.45463 2.17971 6.19588 2.14877C6.11432 2.13752 6.03276 2.13752 5.9512 2.13189C5.81338 2.12064 5.66995 2.10377 5.53495 2.10377C5.50401 2.10377 5.47307 2.10939 5.44495 2.10939C5.34932 2.11221 5.25932 2.12064 5.1637 2.12627C5.01745 2.13752 4.8712 2.14877 4.73057 2.17127C4.63213 2.18814 4.53651 2.20783 4.44088 2.23033C4.31151 2.25846 4.18213 2.28939 4.05557 2.32877C3.95995 2.35971 3.86432 2.39064 3.77151 2.42721C3.65057 2.46939 3.53526 2.52002 3.41995 2.57346C3.32995 2.61564 3.23713 2.66064 3.14995 2.70564C3.04026 2.76471 2.9362 2.82939 2.83213 2.89689C2.74776 2.95033 2.66057 3.00377 2.57901 3.06002C2.47776 3.13314 2.37932 3.21471 2.2837 3.29627C2.20776 3.36096 2.13182 3.42002 2.0587 3.48471C1.95745 3.58314 1.86182 3.68721 1.7662 3.79127C1.6537 3.91221 1.54963 4.04158 1.44838 4.17377C1.36682 4.27783 1.28526 4.38189 1.21213 4.49158C1.14745 4.58721 1.09401 4.69127 1.03495 4.78971C0.978696 4.88533 0.919634 4.97814 0.869009 5.07939C0.812759 5.18627 0.764946 5.29877 0.714321 5.41127C0.672134 5.50971 0.627134 5.60814 0.587759 5.70939C0.542759 5.82471 0.503384 5.94564 0.466821 6.06377C0.433071 6.16502 0.402134 6.26627 0.374009 6.37033C0.337446 6.48564 0.306509 6.61221 0.281196 6.73877C0.258696 6.84002 0.241821 6.94689 0.224946 7.05096C0.205259 7.18033 0.185571 7.31252 0.171509 7.44471C0.160259 7.54596 0.157446 7.65283 0.151821 7.75689C0.143384 7.89471 0.134946 8.02971 0.137759 8.16752C0.137759 8.26877 0.149009 8.36721 0.151821 8.46564C0.160259 8.60908 0.165884 8.75533 0.182759 8.90158C0.191196 8.97752 0.208071 9.05346 0.222134 9.13221C0.247446 9.29252 0.267134 9.45002 0.300884 9.61033C0.478071 10.3922 0.967446 11.5847 1.76338 12.1022C1.7662 12.105 1.76901 12.1078 1.77182 12.1078ZM17.7974 3.79689C17.7524 3.88408 17.7131 3.96846 17.6765 4.05846C17.6568 4.10627 17.6428 4.15408 17.6259 4.20189C17.6034 4.27221 17.5781 4.34252 17.5584 4.41564C17.5303 4.53096 17.5106 4.64627 17.4965 4.76721C17.4965 4.77846 17.4909 4.79252 17.4909 4.80377C17.4262 5.50408 17.6568 6.03846 18.0534 6.47158C18.3403 6.78096 18.7115 7.04252 19.1165 7.27314C19.7015 7.60502 20.3006 7.90033 20.8181 8.29408C21.2456 8.62033 21.6168 9.00846 21.8699 9.54846C22.1709 10.1953 22.5393 11.4553 23.234 12.0431C23.2424 12.0516 23.2509 12.0544 23.2593 12.0628C23.3099 12.1022 23.3606 12.1416 23.4112 12.1753C23.4309 12.1866 23.4506 12.195 23.4674 12.2035C23.5124 12.2288 23.5574 12.2541 23.6053 12.2738C23.6334 12.285 23.6615 12.2906 23.6924 12.2991C23.7346 12.3103 23.774 12.3272 23.8162 12.3356C23.8528 12.3441 23.8893 12.3441 23.9259 12.3469C23.9653 12.3525 24.0018 12.3581 24.0384 12.3581H24.0468C25.3349 12.3525 26.0915 10.6285 26.3249 9.60752C26.3446 9.51752 26.3531 9.42752 26.3699 9.33471C26.3981 9.18283 26.4262 9.03096 26.4459 8.87908C26.4599 8.76939 26.4628 8.66252 26.4684 8.55564C26.4768 8.41502 26.4881 8.27721 26.4881 8.13658C26.4881 8.02971 26.4824 7.92564 26.4796 7.81877C26.474 7.68096 26.4656 7.54314 26.4515 7.40533C26.4403 7.30127 26.4262 7.20002 26.4121 7.09596C26.3924 6.95814 26.3671 6.82314 26.339 6.68814C26.3193 6.58971 26.2968 6.49408 26.2715 6.39846C26.2378 6.26064 26.1956 6.12564 26.1534 5.99346C26.1224 5.90627 26.0943 5.81627 26.0606 5.72908C26.0099 5.58846 25.9481 5.45346 25.8862 5.32127C25.8524 5.24533 25.8187 5.16658 25.7821 5.09346C25.7062 4.94439 25.6218 4.80096 25.5346 4.66033C25.5009 4.60689 25.4728 4.55346 25.439 4.50002C25.1859 4.11471 24.8906 3.76596 24.5615 3.45939C24.5165 3.41721 24.4659 3.37783 24.4181 3.33846C24.2943 3.23439 24.1734 3.13033 24.044 3.03752L23.8443 2.90533C23.7234 2.82658 23.6024 2.75064 23.4731 2.68314C23.3943 2.64096 23.3184 2.60439 23.2368 2.56783C23.1131 2.50877 22.9837 2.45533 22.8515 2.40471C22.7671 2.37377 22.6799 2.34283 22.5928 2.31752C22.4578 2.28377 22.3199 2.25002 22.1821 2.21908C22.0921 2.19939 22.0021 2.17971 21.9093 2.16564C21.7631 2.14314 21.6168 2.12908 21.4649 2.12064C21.3749 2.11502 21.2849 2.10377 21.1921 2.10377C21.1612 2.10377 21.1331 2.09814 21.1021 2.09814C20.9671 2.09814 20.8293 2.11502 20.6915 2.12346C20.6071 2.13189 20.5228 2.13189 20.4384 2.14033C20.1824 2.17127 19.9209 2.21908 19.6537 2.28377C19.4962 2.32596 19.3415 2.38502 19.1953 2.44971C19.1587 2.46658 19.1249 2.48908 19.0912 2.50596C18.9787 2.56502 18.869 2.62971 18.7621 2.70002C18.734 2.71971 18.7059 2.74221 18.6778 2.76189C18.5681 2.84627 18.4612 2.93627 18.3628 3.03471C18.3487 3.04877 18.3318 3.06283 18.3178 3.07971C18.2081 3.19502 18.1068 3.31596 18.014 3.44533L18.0084 3.45096C18.0084 3.45096 18.0084 3.45377 18.0056 3.45658C17.9437 3.54658 17.8874 3.63939 17.8368 3.73502C17.8199 3.75752 17.8087 3.77721 17.7974 3.79689Z"/>
</mask>
<path d="M1.77182 12.1078C2.0137 12.2625 2.2837 12.361 2.58182 12.361H2.58745C2.63245 12.361 2.67463 12.3525 2.71682 12.3497C2.75338 12.3441 2.78432 12.3469 2.81245 12.3413C2.87151 12.33 2.92495 12.3103 2.97838 12.2935C2.99245 12.2878 3.00932 12.285 3.02057 12.2794C3.08807 12.2541 3.15276 12.2203 3.21182 12.181H3.21463C4.03026 11.6747 4.43245 10.2544 4.76151 9.55408C5.3212 8.36158 6.44338 7.88346 7.51213 7.27877C7.91995 7.04814 8.28838 6.78377 8.57245 6.47721C8.9662 6.04408 9.19682 5.50971 9.13776 4.81502V4.80939C9.12651 4.66877 9.1012 4.53377 9.06745 4.40158C9.05057 4.33408 9.02245 4.26939 9.00276 4.20189C8.98307 4.14283 8.9662 4.08377 8.9437 4.02752C8.90432 3.93189 8.85651 3.83908 8.80588 3.74908C8.79463 3.72658 8.78338 3.70408 8.77213 3.68439C8.70995 3.57725 8.64139 3.47394 8.56682 3.37502C8.56401 3.36939 8.55838 3.36658 8.55557 3.36377C8.46557 3.24564 8.36713 3.13596 8.26026 3.03189L8.22932 3.00096C8.13088 2.90533 8.0212 2.81814 7.9087 2.73658L7.84682 2.69158C7.74557 2.62408 7.63588 2.56221 7.5262 2.50596C7.48963 2.48908 7.4587 2.46658 7.42495 2.45252C7.30401 2.39908 7.17745 2.35408 7.05088 2.31752C7.02838 2.30908 7.00588 2.29783 6.98338 2.29221C6.7162 2.22471 6.45463 2.17971 6.19588 2.14877C6.11432 2.13752 6.03276 2.13752 5.9512 2.13189C5.81338 2.12064 5.66995 2.10377 5.53495 2.10377C5.50401 2.10377 5.47307 2.10939 5.44495 2.10939C5.34932 2.11221 5.25932 2.12064 5.1637 2.12627C5.01745 2.13752 4.8712 2.14877 4.73057 2.17127C4.63213 2.18814 4.53651 2.20783 4.44088 2.23033C4.31151 2.25846 4.18213 2.28939 4.05557 2.32877C3.95995 2.35971 3.86432 2.39064 3.77151 2.42721C3.65057 2.46939 3.53526 2.52002 3.41995 2.57346C3.32995 2.61564 3.23713 2.66064 3.14995 2.70564C3.04026 2.76471 2.9362 2.82939 2.83213 2.89689C2.74776 2.95033 2.66057 3.00377 2.57901 3.06002C2.47776 3.13314 2.37932 3.21471 2.2837 3.29627C2.20776 3.36096 2.13182 3.42002 2.0587 3.48471C1.95745 3.58314 1.86182 3.68721 1.7662 3.79127C1.6537 3.91221 1.54963 4.04158 1.44838 4.17377C1.36682 4.27783 1.28526 4.38189 1.21213 4.49158C1.14745 4.58721 1.09401 4.69127 1.03495 4.78971C0.978696 4.88533 0.919634 4.97814 0.869009 5.07939C0.812759 5.18627 0.764946 5.29877 0.714321 5.41127C0.672134 5.50971 0.627134 5.60814 0.587759 5.70939C0.542759 5.82471 0.503384 5.94564 0.466821 6.06377C0.433071 6.16502 0.402134 6.26627 0.374009 6.37033C0.337446 6.48564 0.306509 6.61221 0.281196 6.73877C0.258696 6.84002 0.241821 6.94689 0.224946 7.05096C0.205259 7.18033 0.185571 7.31252 0.171509 7.44471C0.160259 7.54596 0.157446 7.65283 0.151821 7.75689C0.143384 7.89471 0.134946 8.02971 0.137759 8.16752C0.137759 8.26877 0.149009 8.36721 0.151821 8.46564C0.160259 8.60908 0.165884 8.75533 0.182759 8.90158C0.191196 8.97752 0.208071 9.05346 0.222134 9.13221C0.247446 9.29252 0.267134 9.45002 0.300884 9.61033C0.478071 10.3922 0.967446 11.5847 1.76338 12.1022C1.7662 12.105 1.76901 12.1078 1.77182 12.1078ZM17.7974 3.79689C17.7524 3.88408 17.7131 3.96846 17.6765 4.05846C17.6568 4.10627 17.6428 4.15408 17.6259 4.20189C17.6034 4.27221 17.5781 4.34252 17.5584 4.41564C17.5303 4.53096 17.5106 4.64627 17.4965 4.76721C17.4965 4.77846 17.4909 4.79252 17.4909 4.80377C17.4262 5.50408 17.6568 6.03846 18.0534 6.47158C18.3403 6.78096 18.7115 7.04252 19.1165 7.27314C19.7015 7.60502 20.3006 7.90033 20.8181 8.29408C21.2456 8.62033 21.6168 9.00846 21.8699 9.54846C22.1709 10.1953 22.5393 11.4553 23.234 12.0431C23.2424 12.0516 23.2509 12.0544 23.2593 12.0628C23.3099 12.1022 23.3606 12.1416 23.4112 12.1753C23.4309 12.1866 23.4506 12.195 23.4674 12.2035C23.5124 12.2288 23.5574 12.2541 23.6053 12.2738C23.6334 12.285 23.6615 12.2906 23.6924 12.2991C23.7346 12.3103 23.774 12.3272 23.8162 12.3356C23.8528 12.3441 23.8893 12.3441 23.9259 12.3469C23.9653 12.3525 24.0018 12.3581 24.0384 12.3581H24.0468C25.3349 12.3525 26.0915 10.6285 26.3249 9.60752C26.3446 9.51752 26.3531 9.42752 26.3699 9.33471C26.3981 9.18283 26.4262 9.03096 26.4459 8.87908C26.4599 8.76939 26.4628 8.66252 26.4684 8.55564C26.4768 8.41502 26.4881 8.27721 26.4881 8.13658C26.4881 8.02971 26.4824 7.92564 26.4796 7.81877C26.474 7.68096 26.4656 7.54314 26.4515 7.40533C26.4403 7.30127 26.4262 7.20002 26.4121 7.09596C26.3924 6.95814 26.3671 6.82314 26.339 6.68814C26.3193 6.58971 26.2968 6.49408 26.2715 6.39846C26.2378 6.26064 26.1956 6.12564 26.1534 5.99346C26.1224 5.90627 26.0943 5.81627 26.0606 5.72908C26.0099 5.58846 25.9481 5.45346 25.8862 5.32127C25.8524 5.24533 25.8187 5.16658 25.7821 5.09346C25.7062 4.94439 25.6218 4.80096 25.5346 4.66033C25.5009 4.60689 25.4728 4.55346 25.439 4.50002C25.1859 4.11471 24.8906 3.76596 24.5615 3.45939C24.5165 3.41721 24.4659 3.37783 24.4181 3.33846C24.2943 3.23439 24.1734 3.13033 24.044 3.03752L23.8443 2.90533C23.7234 2.82658 23.6024 2.75064 23.4731 2.68314C23.3943 2.64096 23.3184 2.60439 23.2368 2.56783C23.1131 2.50877 22.9837 2.45533 22.8515 2.40471C22.7671 2.37377 22.6799 2.34283 22.5928 2.31752C22.4578 2.28377 22.3199 2.25002 22.1821 2.21908C22.0921 2.19939 22.0021 2.17971 21.9093 2.16564C21.7631 2.14314 21.6168 2.12908 21.4649 2.12064C21.3749 2.11502 21.2849 2.10377 21.1921 2.10377C21.1612 2.10377 21.1331 2.09814 21.1021 2.09814C20.9671 2.09814 20.8293 2.11502 20.6915 2.12346C20.6071 2.13189 20.5228 2.13189 20.4384 2.14033C20.1824 2.17127 19.9209 2.21908 19.6537 2.28377C19.4962 2.32596 19.3415 2.38502 19.1953 2.44971C19.1587 2.46658 19.1249 2.48908 19.0912 2.50596C18.9787 2.56502 18.869 2.62971 18.7621 2.70002C18.734 2.71971 18.7059 2.74221 18.6778 2.76189C18.5681 2.84627 18.4612 2.93627 18.3628 3.03471C18.3487 3.04877 18.3318 3.06283 18.3178 3.07971C18.2081 3.19502 18.1068 3.31596 18.014 3.44533L18.0084 3.45096C18.0084 3.45096 18.0084 3.45377 18.0056 3.45658C17.9437 3.54658 17.8874 3.63939 17.8368 3.73502C17.8199 3.75752 17.8087 3.77721 17.7974 3.79689Z" fill="#F79329" stroke="#F5F5F5" mask="url(#path-3-inside-1_371_1951)"/>
<path d="M7.72319 17.595C6.9385 17.5894 6.30569 16.8554 6.31132 15.9497C6.31694 15.0497 6.95538 14.3213 7.73725 14.3241C8.51913 14.3269 9.15194 15.0666 9.14632 15.9694C9.1435 16.875 8.50225 17.5979 7.72319 17.595ZM16.1382 22.9304C16.0707 23.0991 15.9019 23.1975 15.7782 23.2707L15.7219 23.3044C15.1201 23.6672 14.2116 23.6166 13.5901 23.3241L13.5254 23.2932C13.4382 23.251 13.4016 23.2341 13.3454 23.2341C13.2582 23.2425 13.1766 23.2763 13.1035 23.31C13.0444 23.3354 12.9854 23.3579 12.9348 23.3747C12.3301 23.566 11.6691 23.6925 11.0588 23.4619C10.8901 23.3972 10.6623 23.2679 10.5357 23.0907C10.4457 22.9669 10.4119 22.7982 10.4485 22.6604C10.4794 22.5422 10.5582 22.4466 10.6679 22.3904C10.8873 22.2863 11.1291 22.3791 11.2838 22.4607C11.6719 22.6688 12.3413 22.6829 12.6648 22.3397C12.7744 22.2216 12.8279 22.05 12.8166 21.8307V21.7744C12.4904 21.7604 12.1782 21.7069 11.8688 21.5944C10.921 21.2541 10.6566 20.3879 11.0363 19.5779C11.0926 19.4569 11.1601 19.3472 11.236 19.246C11.641 18.72 12.3019 18.481 13.0641 18.4444C13.9444 18.4022 15.0976 18.7229 15.5588 19.485C15.8569 19.9829 15.7219 20.7479 15.3394 21.1754C14.9879 21.5747 14.3551 21.6872 13.7757 21.735C13.7729 21.9404 13.7701 22.1597 13.8516 22.3004L13.981 22.4044C14.3523 22.6575 14.9344 22.7082 15.3366 22.4804L15.4069 22.441C15.4688 22.4044 15.5279 22.3707 15.5982 22.3454C15.7866 22.275 15.9948 22.3313 16.1016 22.4916C16.1832 22.6182 16.1973 22.7841 16.1382 22.9304ZM18.8888 17.595C18.1098 17.5979 17.4713 16.8722 17.4685 15.9694C17.4629 15.0666 18.0957 14.3297 18.8776 14.3241C19.6566 14.3213 20.2979 15.0497 20.3035 15.9497C20.3091 16.8554 19.6735 17.5894 18.8888 17.595Z" fill="#2F2F2F"/>
<path d="M20.8631 24.6263C19.7212 25.591 18.014 26.7975 14.3381 26.7975C10.9575 26.7975 8.95215 25.2366 8.95215 25.2366C8.95215 25.2366 11.2471 25.9707 13.3903 25.9707C14.639 25.9707 15.6796 25.8722 16.74 25.5797C18.3768 25.1325 19.62 24.255 20.2078 23.836C21.0656 23.2257 22.8206 21.7519 23.8781 18.2672C23.8781 18.27 23.7234 22.2103 20.8631 24.6263Z" fill="#006CA2"/>
<path d="M14.5884 29.0447C15.3588 29.0447 15.9834 28.4554 15.9834 27.7285C15.9834 27.0015 15.3588 26.4122 14.5884 26.4122C13.8179 26.4122 13.1934 27.0015 13.1934 27.7285C13.1934 28.4554 13.8179 29.0447 14.5884 29.0447Z" fill="#78A3AD"/>
<path d="M14.5687 27.2756C14.7256 27.2756 14.8528 27.156 14.8528 27.0084C14.8528 26.8608 14.7256 26.7412 14.5687 26.7412C14.4118 26.7412 14.2847 26.8608 14.2847 27.0084C14.2847 27.156 14.4118 27.2756 14.5687 27.2756Z" fill="#2F2F2F"/>
</svg>
