<svg width="37" height="36" viewBox="0 0 37 36" fill="none" xmlns="http://www.w3.org/2000/svg">
<path d="M16.8553 3.0487C16.8553 3.0487 17.7019 3.31308 18.0084 3.45089L25.5572 11.4103C25.5572 11.4103 25.8216 11.7731 26.4037 11.9475L26.1591 14.324L21.33 15.4406L14.5097 10.454L13.2328 5.26776L16.8553 3.0487ZM2.0503 13.4887C2.0503 13.4887 1.86186 11.8912 2.1403 10.6537L8.5528 3.35526C8.5528 3.35526 8.78905 3.19776 9.74249 2.9812L12.4341 4.07245L11.5172 11.6915L3.89811 17.834L2.0503 13.4887Z" fill="#855C52"/>
<path d="M27.0712 11.9512L27.072 11.9516C27.8367 12.3565 28.5313 12.8856 29.0957 13.5303C31.0035 13.9497 32.415 13.4078 34.1728 12.5662C34.2117 12.5472 34.2573 12.5234 34.3074 12.4971C34.4444 12.4254 34.6157 12.3356 34.7801 12.2775C35.0159 12.1941 35.3105 12.1451 35.5988 12.2929C35.8462 12.4188 35.9813 12.6414 36.0482 12.8757C36.114 13.1064 36.1198 13.3668 36.099 13.6132C36.0574 14.1069 35.9025 14.6129 35.7995 14.8743L35.7994 14.8744C35.3554 15.9979 34.4343 16.791 33.267 17.1372L33.2669 17.1373C32.529 17.3556 31.7214 17.3848 30.9522 17.2434C31.3108 18.5599 31.4798 19.941 31.5695 21.291M27.0712 11.9512L31.3313 25.5713L31.5808 25.5871C31.6715 24.15 31.6658 22.7274 31.5695 21.291M27.0712 11.9512L27.0527 11.9415C26.9467 11.8857 26.8119 11.8149 26.6699 11.7632C26.5192 11.7085 26.3377 11.6664 26.1476 11.6947L26.1475 11.6946M27.0712 11.9512L26.1475 11.6946M31.5695 21.291L31.32 21.3076L31.5694 21.2908C31.5694 21.2909 31.5695 21.2909 31.5695 21.291ZM26.1475 11.6946L26.1421 11.6955M26.1475 11.6946L26.1421 11.6955M26.1421 11.6955C26.029 11.7149 25.9488 11.7713 25.8928 11.8255C25.8583 11.8589 25.8192 11.9074 25.7979 11.9338C25.7925 11.9406 25.7881 11.946 25.7854 11.9492L25.7841 11.9508M26.1421 11.6955L25.7841 11.9508M25.7841 11.9508C25.6746 12.0824 25.5762 12.2263 25.4858 12.3585C25.4651 12.3887 25.4449 12.4182 25.4251 12.4469C25.3143 12.607 25.2104 12.7472 25.0893 12.8636C24.8657 13.0752 24.502 13.2391 24.1322 13.2936C24.1085 13.2954 24.0935 13.2969 24.0819 13.2981C24.0663 13.2997 24.0571 13.3007 24.0413 13.3007C23.2242 13.3007 22.6418 12.8857 22.197 12.3116C21.7465 11.7301 21.4557 11.0085 21.2273 10.4397L21.2269 10.4388M25.7841 11.9508L21.2269 10.4388M21.2269 10.4388C21.2157 10.4112 21.2046 10.3838 21.1936 10.3566C21.1343 10.2099 21.0776 10.0699 21.0229 9.95059L21.0219 9.9485M21.2269 10.4388L21.0219 9.9485M21.0219 9.9485C20.6777 9.21536 20.0145 8.83992 19.1081 8.34248C19.0554 8.31321 19.0038 8.28488 18.9529 8.25689C18.8529 8.202 18.7553 8.14839 18.656 8.09138L18.6548 8.09067M21.0219 9.9485L18.6548 8.09067M18.6548 8.09067C18.1003 7.77656 17.6817 7.45452 17.3637 7.10496L17.3635 7.10481M18.6548 8.09067L17.3635 7.10481M17.3635 7.10481C16.7468 6.42794 16.4779 5.63099 16.5615 4.72265L16.5615 4.72228M17.3635 7.10481L16.5615 4.72228M16.5615 4.72228C16.6113 4.17193 16.7924 3.64761 17.0706 3.17584L17.2339 2.89916M16.5615 4.72228L17.2339 2.89916M17.2339 2.89916L16.9256 2.80889M17.2339 2.89916L16.9256 2.80889M16.9256 2.80889C16.2929 2.62364 14.8121 2.24194 13.2469 2.24194C11.8636 2.24194 10.4341 2.54292 9.67951 2.73939L9.35279 2.82446M16.9256 2.80889L9.35279 2.82446M9.35279 2.82446L9.52947 3.11215M9.35279 2.82446L9.52947 3.11215M9.52947 3.11215C9.82836 3.59883 10.0204 4.14991 10.0729 4.72528L9.52947 3.11215ZM5.58466 23.5187C3.09125 21.2883 1.97966 17.7271 1.80066 14.3063L1.80052 14.3036L1.80054 14.3036C1.78896 14.0258 1.79472 13.752 1.8003 13.4872L1.80037 13.4836L1.80674 13.1813L2.10243 13.2443C2.25979 13.2778 2.41728 13.298 2.581 13.3007C3.40347 13.3 3.9888 12.8852 4.43498 12.3125C4.8871 11.7322 5.17845 11.012 5.40663 10.4436C5.47609 10.2658 5.54379 10.0947 5.61288 9.95042C5.95715 9.21809 6.6196 8.84008 7.52637 8.34246C7.57902 8.3132 7.63055 8.2849 7.68146 8.25693C7.78141 8.20202 7.87903 8.1484 7.97835 8.09138L7.97994 8.09047L7.97995 8.09047C8.53037 7.77984 8.9494 7.45509 9.26809 7.10756C9.88493 6.42778 10.1537 5.63067 10.0729 4.7253L5.58466 23.5187ZM5.58466 23.5187C6.08362 23.9661 6.64222 24.3374 7.22151 24.6653L7.22118 24.7031L7.21646 25.2031C7.21237 25.6219 7.20649 26.1924 7.19928 26.7992C7.18485 28.0143 7.16519 29.3699 7.14423 29.9469L7.14421 29.9476C7.13827 30.1243 7.11864 30.3363 7.09623 30.5783C7.08793 30.6679 7.07925 30.7616 7.07075 30.8592C7.03989 31.213 7.01264 31.6061 7.02251 31.9909C7.04161 32.736 7.20177 33.5632 7.88225 33.9554C8.61553 34.3785 9.70815 34.6204 10.741 34.5721C11.7675 34.5242 12.8107 34.1842 13.3621 33.3572L13.3625 33.3565C13.8181 32.6686 13.9019 31.844 13.9019 31.1091C13.9019 30.6998 13.9136 30.4151 13.9256 30.1264L13.9256 30.1263C13.9376 29.8364 13.9497 29.5424 13.9497 29.1207C13.9497 29.0302 13.942 28.9241 13.9346 28.8222C13.9339 28.8125 13.9332 28.8029 13.9325 28.7933C13.9242 28.678 13.9166 28.5631 13.9166 28.4524C13.9166 28.341 13.9245 28.244 13.9431 28.165C13.9617 28.0856 13.9876 28.0398 14.0123 28.0141L14.0132 28.0131C14.0404 27.9845 14.0703 27.9703 14.1267 27.9639C14.1582 27.9604 14.1945 27.9598 14.2413 27.9608C14.2542 27.9611 14.2694 27.9616 14.286 27.9621C14.3209 27.9632 14.3615 27.9644 14.3972 27.9644C14.7074 27.9644 15.0215 27.9337 15.317 27.9048C15.3383 27.9027 15.3594 27.9006 15.3805 27.8986L15.3817 27.8985C15.8141 27.8543 16.102 27.8763 16.2961 27.9363C16.4793 27.9929 16.5818 28.0837 16.652 28.2026C16.7289 28.333 16.7756 28.5121 16.8101 28.7597C16.8298 28.9005 16.8431 29.0393 16.8577 29.1912C16.8701 29.3206 16.8835 29.4595 16.9024 29.6174M5.58466 23.5187L25.0772 25.6933C24.8443 25.7375 24.6042 25.7289 24.3975 25.7216C24.371 25.7206 24.345 25.7197 24.3196 25.7189C24.0828 25.7115 23.8891 25.7144 23.7149 25.7721L23.7143 25.7722C23.531 25.8325 23.4348 25.9837 23.3873 26.2477C23.3637 26.3787 23.3556 26.5226 23.3523 26.6715C23.3512 26.7191 23.3506 26.7693 23.3501 26.82C23.349 26.9175 23.3479 27.0166 23.3431 27.1007C23.3249 27.4686 23.3631 27.8213 23.4038 28.1955C23.4233 28.3758 23.4434 28.5611 23.458 28.7556M16.9024 29.6174C16.9024 29.6173 16.9024 29.6172 16.9024 29.6172L17.1506 29.5876L16.9024 29.6174ZM16.9024 29.6174C16.9798 30.2664 16.9118 30.9019 16.8399 31.5728C16.8136 31.8186 16.7868 32.0692 16.7664 32.3269L16.7664 32.327C16.7109 33.0321 17.0167 33.5309 17.49 33.8466C17.9471 34.1514 18.5501 34.2813 19.1155 34.3091L19.1156 34.3091C20.2842 34.3661 21.7737 34.2419 22.8568 33.6272L22.8574 33.6269C23.1564 33.4561 23.3657 33.2523 23.5021 33.0168C23.6378 32.7822 23.6914 32.5329 23.7052 32.2861C23.7188 32.0423 23.6939 31.7913 23.666 31.552C23.6612 31.5109 23.6563 31.4702 23.6515 31.4298C23.6274 31.2284 23.6042 31.0341 23.5964 30.8377L23.5964 30.8374C23.5704 30.1992 23.5207 29.5612 23.4716 28.9308C23.4671 28.8723 23.4625 28.8139 23.458 28.7556M23.458 28.7556C23.458 28.7555 23.458 28.7555 23.458 28.7554L23.2088 28.7748L23.4581 28.7561C23.458 28.7559 23.458 28.7557 23.458 28.7556ZM26.2664 29.2621L26.4038 29.0532L26.2662 29.262C26.2663 29.262 26.2664 29.2621 26.2664 29.2621ZM30.6766 17.185C30.6502 17.0916 30.6228 16.9986 30.5944 16.906C30.6873 16.9312 30.7812 16.9538 30.8758 16.9736L30.6766 17.185ZM17.0156 32.3466C16.92 33.5616 18.0422 34.006 19.1278 34.0594C20.2809 34.1157 21.7125 33.9891 22.7334 33.4098C23.579 32.9269 23.495 32.2257 23.4036 31.4622C23.3794 31.2607 23.3548 31.0549 23.3466 30.8476L17.0156 32.3466ZM15.2953 27.6557C15.3157 27.6537 15.336 27.6517 15.3563 27.6498L13.6519 31.1091C13.6519 30.6946 13.6638 30.4058 13.6758 30.1167C13.6877 29.8271 13.6997 29.5373 13.6997 29.1207C13.6997 29.0398 13.6927 28.9429 13.6851 28.8384C13.6599 28.4887 13.6284 28.0532 13.8319 27.841C13.964 27.7018 14.1318 27.7071 14.3003 27.7124C14.3327 27.7134 14.365 27.7144 14.3972 27.7144C14.6947 27.7144 14.9972 27.6849 15.2953 27.6557Z" fill="#F79329" stroke="white" stroke-width="0.5"/>
<mask id="path-3-inside-1_365_3125" fill="white">
<path d="M1.77188 12.1078C2.01376 12.2625 2.28376 12.361 2.58188 12.361H2.58751C2.63251 12.361 2.67469 12.3525 2.71688 12.3497C2.75344 12.3441 2.78438 12.3469 2.81251 12.3413C2.87157 12.33 2.92501 12.3103 2.97844 12.2935C2.99251 12.2878 3.00938 12.285 3.02063 12.2794C3.08813 12.2541 3.15282 12.2203 3.21188 12.181H3.21469C4.03032 11.6747 4.43251 10.2544 4.76157 9.55408C5.32126 8.36158 6.44344 7.88346 7.51219 7.27877C7.92001 7.04814 8.28844 6.78377 8.57251 6.47721C8.96626 6.04408 9.19688 5.50971 9.13782 4.81502V4.80939C9.12657 4.66877 9.10126 4.53377 9.06751 4.40158C9.05063 4.33408 9.02251 4.26939 9.00282 4.20189C8.98313 4.14283 8.96626 4.08377 8.94376 4.02752C8.90438 3.93189 8.85657 3.83908 8.80594 3.74908C8.79469 3.72658 8.78344 3.70408 8.77219 3.68439C8.71001 3.57725 8.64145 3.47394 8.56688 3.37502C8.56407 3.36939 8.55844 3.36658 8.55563 3.36377C8.46563 3.24564 8.3672 3.13596 8.26032 3.03189L8.22938 3.00096C8.13094 2.90533 8.02126 2.81814 7.90876 2.73658L7.84688 2.69158C7.74563 2.62408 7.63594 2.56221 7.52626 2.50596C7.48969 2.48908 7.45876 2.46658 7.42501 2.45252C7.30407 2.39908 7.17751 2.35408 7.05094 2.31752C7.02844 2.30908 7.00594 2.29783 6.98344 2.29221C6.71626 2.22471 6.45469 2.17971 6.19594 2.14877C6.11438 2.13752 6.03282 2.13752 5.95126 2.13189C5.81344 2.12064 5.67001 2.10377 5.53501 2.10377C5.50407 2.10377 5.47313 2.10939 5.44501 2.10939C5.34938 2.11221 5.25938 2.12064 5.16376 2.12627C5.01751 2.13752 4.87126 2.14877 4.73063 2.17127C4.63219 2.18814 4.53657 2.20783 4.44094 2.23033C4.31157 2.25846 4.18219 2.28939 4.05563 2.32877C3.96001 2.35971 3.86438 2.39064 3.77157 2.42721C3.65063 2.46939 3.53532 2.52002 3.42001 2.57346C3.33001 2.61564 3.23719 2.66064 3.15001 2.70564C3.04032 2.76471 2.93626 2.82939 2.83219 2.89689C2.74782 2.95033 2.66063 3.00377 2.57907 3.06002C2.47782 3.13314 2.37938 3.21471 2.28376 3.29627C2.20782 3.36096 2.13188 3.42002 2.05876 3.48471C1.95751 3.58314 1.86188 3.68721 1.76626 3.79127C1.65376 3.91221 1.54969 4.04158 1.44844 4.17377C1.36688 4.27783 1.28532 4.38189 1.21219 4.49158C1.14751 4.58721 1.09407 4.69127 1.03501 4.78971C0.978757 4.88533 0.919695 4.97814 0.86907 5.07939C0.81282 5.18627 0.765007 5.29877 0.714382 5.41127C0.672195 5.50971 0.627195 5.60814 0.58782 5.70939C0.54282 5.82471 0.503445 5.94564 0.466882 6.06377C0.433132 6.16502 0.402195 6.26627 0.37407 6.37033C0.337507 6.48564 0.30657 6.61221 0.281257 6.73877C0.258757 6.84002 0.241882 6.94689 0.225007 7.05096C0.20532 7.18033 0.185632 7.31252 0.17157 7.44471C0.16032 7.54596 0.157507 7.65283 0.151882 7.75689C0.143445 7.89471 0.135007 8.02971 0.13782 8.16752C0.13782 8.26877 0.14907 8.36721 0.151882 8.46564C0.16032 8.60908 0.165945 8.75533 0.18282 8.90158C0.191257 8.97752 0.208132 9.05346 0.222195 9.13221C0.247507 9.29252 0.267195 9.45002 0.300945 9.61033C0.478132 10.3922 0.967507 11.5847 1.76344 12.1022C1.76626 12.105 1.76907 12.1078 1.77188 12.1078ZM17.7975 3.79689C17.7525 3.88408 17.7131 3.96846 17.6766 4.05846C17.6569 4.10627 17.6428 4.15408 17.6259 4.20189C17.6034 4.27221 17.5781 4.34252 17.5584 4.41564C17.5303 4.53096 17.5106 4.64627 17.4966 4.76721C17.4966 4.77846 17.4909 4.79252 17.4909 4.80377C17.4263 5.50408 17.6569 6.03846 18.0534 6.47158C18.3403 6.78096 18.7116 7.04252 19.1166 7.27314C19.7016 7.60502 20.3006 7.90033 20.8181 8.29408C21.2456 8.62033 21.6169 9.00846 21.87 9.54846C22.1709 10.1953 22.5394 11.4553 23.2341 12.0431C23.2425 12.0516 23.2509 12.0544 23.2594 12.0628C23.31 12.1022 23.3606 12.1416 23.4113 12.1753C23.4309 12.1866 23.4506 12.195 23.4675 12.2035C23.5125 12.2288 23.5575 12.2541 23.6053 12.2738C23.6334 12.285 23.6616 12.2906 23.6925 12.2991C23.7347 12.3103 23.7741 12.3272 23.8163 12.3356C23.8528 12.3441 23.8894 12.3441 23.9259 12.3469C23.9653 12.3525 24.0019 12.3581 24.0384 12.3581H24.0469C25.335 12.3525 26.0916 10.6285 26.325 9.60752C26.3447 9.51752 26.3531 9.42752 26.37 9.33471C26.3981 9.18283 26.4263 9.03096 26.4459 8.87908C26.46 8.76939 26.4628 8.66252 26.4684 8.55564C26.4769 8.41502 26.4881 8.27721 26.4881 8.13658C26.4881 8.02971 26.4825 7.92564 26.4797 7.81877C26.4741 7.68096 26.4656 7.54314 26.4516 7.40533C26.4403 7.30127 26.4263 7.20002 26.4122 7.09596C26.3925 6.95814 26.3672 6.82314 26.3391 6.68814C26.3194 6.58971 26.2969 6.49408 26.2716 6.39846C26.2378 6.26064 26.1956 6.12564 26.1534 5.99346C26.1225 5.90627 26.0944 5.81627 26.0606 5.72908C26.01 5.58846 25.9481 5.45346 25.8863 5.32127C25.8525 5.24533 25.8188 5.16658 25.7822 5.09346C25.7063 4.94439 25.6219 4.80096 25.5347 4.66033C25.5009 4.60689 25.4728 4.55346 25.4391 4.50002C25.1859 4.11471 24.8906 3.76596 24.5616 3.45939C24.5166 3.41721 24.4659 3.37783 24.4181 3.33846C24.2944 3.23439 24.1734 3.13033 24.0441 3.03752L23.8444 2.90533C23.7234 2.82658 23.6025 2.75064 23.4731 2.68314C23.3944 2.64096 23.3184 2.60439 23.2369 2.56783C23.1131 2.50877 22.9838 2.45533 22.8516 2.40471C22.7672 2.37377 22.68 2.34283 22.5928 2.31752C22.4578 2.28377 22.32 2.25002 22.1822 2.21908C22.0922 2.19939 22.0022 2.17971 21.9094 2.16564C21.7631 2.14314 21.6169 2.12908 21.465 2.12064C21.375 2.11502 21.285 2.10377 21.1922 2.10377C21.1613 2.10377 21.1331 2.09814 21.1022 2.09814C20.9672 2.09814 20.8294 2.11502 20.6916 2.12346C20.6072 2.13189 20.5228 2.13189 20.4384 2.14033C20.1825 2.17127 19.9209 2.21908 19.6538 2.28377C19.4963 2.32596 19.3416 2.38502 19.1953 2.44971C19.1588 2.46658 19.125 2.48908 19.0913 2.50596C18.9788 2.56502 18.8691 2.62971 18.7622 2.70002C18.7341 2.71971 18.7059 2.74221 18.6778 2.76189C18.5681 2.84627 18.4613 2.93627 18.3628 3.03471C18.3488 3.04877 18.3319 3.06283 18.3178 3.07971C18.2081 3.19502 18.1069 3.31596 18.0141 3.44533L18.0084 3.45096C18.0084 3.45096 18.0084 3.45377 18.0056 3.45658C17.9438 3.54658 17.8875 3.63939 17.8369 3.73502C17.82 3.75752 17.8088 3.77721 17.7975 3.79689Z"/>
</mask>
<path d="M1.77188 12.1078C2.01376 12.2625 2.28376 12.361 2.58188 12.361H2.58751C2.63251 12.361 2.67469 12.3525 2.71688 12.3497C2.75344 12.3441 2.78438 12.3469 2.81251 12.3413C2.87157 12.33 2.92501 12.3103 2.97844 12.2935C2.99251 12.2878 3.00938 12.285 3.02063 12.2794C3.08813 12.2541 3.15282 12.2203 3.21188 12.181H3.21469C4.03032 11.6747 4.43251 10.2544 4.76157 9.55408C5.32126 8.36158 6.44344 7.88346 7.51219 7.27877C7.92001 7.04814 8.28844 6.78377 8.57251 6.47721C8.96626 6.04408 9.19688 5.50971 9.13782 4.81502V4.80939C9.12657 4.66877 9.10126 4.53377 9.06751 4.40158C9.05063 4.33408 9.02251 4.26939 9.00282 4.20189C8.98313 4.14283 8.96626 4.08377 8.94376 4.02752C8.90438 3.93189 8.85657 3.83908 8.80594 3.74908C8.79469 3.72658 8.78344 3.70408 8.77219 3.68439C8.71001 3.57725 8.64145 3.47394 8.56688 3.37502C8.56407 3.36939 8.55844 3.36658 8.55563 3.36377C8.46563 3.24564 8.3672 3.13596 8.26032 3.03189L8.22938 3.00096C8.13094 2.90533 8.02126 2.81814 7.90876 2.73658L7.84688 2.69158C7.74563 2.62408 7.63594 2.56221 7.52626 2.50596C7.48969 2.48908 7.45876 2.46658 7.42501 2.45252C7.30407 2.39908 7.17751 2.35408 7.05094 2.31752C7.02844 2.30908 7.00594 2.29783 6.98344 2.29221C6.71626 2.22471 6.45469 2.17971 6.19594 2.14877C6.11438 2.13752 6.03282 2.13752 5.95126 2.13189C5.81344 2.12064 5.67001 2.10377 5.53501 2.10377C5.50407 2.10377 5.47313 2.10939 5.44501 2.10939C5.34938 2.11221 5.25938 2.12064 5.16376 2.12627C5.01751 2.13752 4.87126 2.14877 4.73063 2.17127C4.63219 2.18814 4.53657 2.20783 4.44094 2.23033C4.31157 2.25846 4.18219 2.28939 4.05563 2.32877C3.96001 2.35971 3.86438 2.39064 3.77157 2.42721C3.65063 2.46939 3.53532 2.52002 3.42001 2.57346C3.33001 2.61564 3.23719 2.66064 3.15001 2.70564C3.04032 2.76471 2.93626 2.82939 2.83219 2.89689C2.74782 2.95033 2.66063 3.00377 2.57907 3.06002C2.47782 3.13314 2.37938 3.21471 2.28376 3.29627C2.20782 3.36096 2.13188 3.42002 2.05876 3.48471C1.95751 3.58314 1.86188 3.68721 1.76626 3.79127C1.65376 3.91221 1.54969 4.04158 1.44844 4.17377C1.36688 4.27783 1.28532 4.38189 1.21219 4.49158C1.14751 4.58721 1.09407 4.69127 1.03501 4.78971C0.978757 4.88533 0.919695 4.97814 0.86907 5.07939C0.81282 5.18627 0.765007 5.29877 0.714382 5.41127C0.672195 5.50971 0.627195 5.60814 0.58782 5.70939C0.54282 5.82471 0.503445 5.94564 0.466882 6.06377C0.433132 6.16502 0.402195 6.26627 0.37407 6.37033C0.337507 6.48564 0.30657 6.61221 0.281257 6.73877C0.258757 6.84002 0.241882 6.94689 0.225007 7.05096C0.20532 7.18033 0.185632 7.31252 0.17157 7.44471C0.16032 7.54596 0.157507 7.65283 0.151882 7.75689C0.143445 7.89471 0.135007 8.02971 0.13782 8.16752C0.13782 8.26877 0.14907 8.36721 0.151882 8.46564C0.16032 8.60908 0.165945 8.75533 0.18282 8.90158C0.191257 8.97752 0.208132 9.05346 0.222195 9.13221C0.247507 9.29252 0.267195 9.45002 0.300945 9.61033C0.478132 10.3922 0.967507 11.5847 1.76344 12.1022C1.76626 12.105 1.76907 12.1078 1.77188 12.1078ZM17.7975 3.79689C17.7525 3.88408 17.7131 3.96846 17.6766 4.05846C17.6569 4.10627 17.6428 4.15408 17.6259 4.20189C17.6034 4.27221 17.5781 4.34252 17.5584 4.41564C17.5303 4.53096 17.5106 4.64627 17.4966 4.76721C17.4966 4.77846 17.4909 4.79252 17.4909 4.80377C17.4263 5.50408 17.6569 6.03846 18.0534 6.47158C18.3403 6.78096 18.7116 7.04252 19.1166 7.27314C19.7016 7.60502 20.3006 7.90033 20.8181 8.29408C21.2456 8.62033 21.6169 9.00846 21.87 9.54846C22.1709 10.1953 22.5394 11.4553 23.2341 12.0431C23.2425 12.0516 23.2509 12.0544 23.2594 12.0628C23.31 12.1022 23.3606 12.1416 23.4113 12.1753C23.4309 12.1866 23.4506 12.195 23.4675 12.2035C23.5125 12.2288 23.5575 12.2541 23.6053 12.2738C23.6334 12.285 23.6616 12.2906 23.6925 12.2991C23.7347 12.3103 23.7741 12.3272 23.8163 12.3356C23.8528 12.3441 23.8894 12.3441 23.9259 12.3469C23.9653 12.3525 24.0019 12.3581 24.0384 12.3581H24.0469C25.335 12.3525 26.0916 10.6285 26.325 9.60752C26.3447 9.51752 26.3531 9.42752 26.37 9.33471C26.3981 9.18283 26.4263 9.03096 26.4459 8.87908C26.46 8.76939 26.4628 8.66252 26.4684 8.55564C26.4769 8.41502 26.4881 8.27721 26.4881 8.13658C26.4881 8.02971 26.4825 7.92564 26.4797 7.81877C26.4741 7.68096 26.4656 7.54314 26.4516 7.40533C26.4403 7.30127 26.4263 7.20002 26.4122 7.09596C26.3925 6.95814 26.3672 6.82314 26.3391 6.68814C26.3194 6.58971 26.2969 6.49408 26.2716 6.39846C26.2378 6.26064 26.1956 6.12564 26.1534 5.99346C26.1225 5.90627 26.0944 5.81627 26.0606 5.72908C26.01 5.58846 25.9481 5.45346 25.8863 5.32127C25.8525 5.24533 25.8188 5.16658 25.7822 5.09346C25.7063 4.94439 25.6219 4.80096 25.5347 4.66033C25.5009 4.60689 25.4728 4.55346 25.4391 4.50002C25.1859 4.11471 24.8906 3.76596 24.5616 3.45939C24.5166 3.41721 24.4659 3.37783 24.4181 3.33846C24.2944 3.23439 24.1734 3.13033 24.0441 3.03752L23.8444 2.90533C23.7234 2.82658 23.6025 2.75064 23.4731 2.68314C23.3944 2.64096 23.3184 2.60439 23.2369 2.56783C23.1131 2.50877 22.9838 2.45533 22.8516 2.40471C22.7672 2.37377 22.68 2.34283 22.5928 2.31752C22.4578 2.28377 22.32 2.25002 22.1822 2.21908C22.0922 2.19939 22.0022 2.17971 21.9094 2.16564C21.7631 2.14314 21.6169 2.12908 21.465 2.12064C21.375 2.11502 21.285 2.10377 21.1922 2.10377C21.1613 2.10377 21.1331 2.09814 21.1022 2.09814C20.9672 2.09814 20.8294 2.11502 20.6916 2.12346C20.6072 2.13189 20.5228 2.13189 20.4384 2.14033C20.1825 2.17127 19.9209 2.21908 19.6538 2.28377C19.4963 2.32596 19.3416 2.38502 19.1953 2.44971C19.1588 2.46658 19.125 2.48908 19.0913 2.50596C18.9788 2.56502 18.8691 2.62971 18.7622 2.70002C18.7341 2.71971 18.7059 2.74221 18.6778 2.76189C18.5681 2.84627 18.4613 2.93627 18.3628 3.03471C18.3488 3.04877 18.3319 3.06283 18.3178 3.07971C18.2081 3.19502 18.1069 3.31596 18.0141 3.44533L18.0084 3.45096C18.0084 3.45096 18.0084 3.45377 18.0056 3.45658C17.9438 3.54658 17.8875 3.63939 17.8369 3.73502C17.82 3.75752 17.8088 3.77721 17.7975 3.79689Z" fill="#F79329" stroke="white" mask="url(#path-3-inside-1_365_3125)"/>
<path d="M7.72313 17.595C6.93844 17.5894 6.30563 16.8554 6.31126 15.9497C6.31688 15.0497 6.95532 14.3213 7.73719 14.3241C8.51907 14.3269 9.15188 15.0666 9.14626 15.9694C9.14344 16.875 8.50219 17.5979 7.72313 17.595ZM16.1381 22.9304C16.0706 23.0991 15.9019 23.1975 15.7781 23.2707L15.7219 23.3044C15.12 23.6672 14.2116 23.6166 13.59 23.3241L13.5253 23.2932C13.4381 23.251 13.4016 23.2341 13.3453 23.2341C13.2581 23.2425 13.1766 23.2763 13.1034 23.31C13.0444 23.3354 12.9853 23.3579 12.9347 23.3747C12.33 23.566 11.6691 23.6925 11.0588 23.4619C10.89 23.3972 10.6622 23.2679 10.5356 23.0907C10.4456 22.9669 10.4119 22.7982 10.4484 22.6604C10.4794 22.5422 10.5581 22.4466 10.6678 22.3904C10.8872 22.2863 11.1291 22.3791 11.2838 22.4607C11.6719 22.6688 12.3413 22.6829 12.6647 22.3397C12.7744 22.2216 12.8278 22.05 12.8166 21.8307V21.7744C12.4903 21.7604 12.1781 21.7069 11.8688 21.5944C10.9209 21.2541 10.6566 20.3879 11.0363 19.5779C11.0925 19.4569 11.16 19.3472 11.2359 19.246C11.6409 18.72 12.3019 18.481 13.0641 18.4444C13.9444 18.4022 15.0975 18.7229 15.5588 19.485C15.8569 19.9829 15.7219 20.7479 15.3394 21.1754C14.9878 21.5747 14.355 21.6872 13.7756 21.735C13.7728 21.9404 13.77 22.1597 13.8516 22.3004L13.9809 22.4044C14.3522 22.6575 14.9344 22.7082 15.3366 22.4804L15.4069 22.441C15.4688 22.4044 15.5278 22.3707 15.5981 22.3454C15.7866 22.275 15.9947 22.3313 16.1016 22.4916C16.1831 22.6182 16.1972 22.7841 16.1381 22.9304ZM18.8888 17.595C18.1097 17.5979 17.4713 16.8722 17.4684 15.9694C17.4628 15.0666 18.0956 14.3297 18.8775 14.3241C19.6566 14.3213 20.2978 15.0497 20.3034 15.9497C20.3091 16.8554 19.6734 17.5894 18.8888 17.595Z" fill="#2F2F2F"/>
<path d="M20.8631 24.6263C19.7212 25.591 18.0141 26.7975 14.3381 26.7975C10.9575 26.7975 8.95218 25.2366 8.95218 25.2366C8.95218 25.2366 11.2472 25.9707 13.3903 25.9707C14.6391 25.9707 15.6797 25.8722 16.74 25.5797C18.3769 25.1325 19.62 24.255 20.2078 23.836C21.0656 23.2257 22.8206 21.7519 23.8781 18.2672C23.8781 18.27 23.7234 22.2103 20.8631 24.6263Z" fill="#006CA2"/>
<path d="M14.5885 29.0447C15.3589 29.0447 15.9835 28.4554 15.9835 27.7285C15.9835 27.0015 15.3589 26.4122 14.5885 26.4122C13.818 26.4122 13.1935 27.0015 13.1935 27.7285C13.1935 28.4554 13.818 29.0447 14.5885 29.0447Z" fill="#78A3AD"/>
<path d="M14.5688 27.2756C14.7256 27.2756 14.8528 27.156 14.8528 27.0084C14.8528 26.8608 14.7256 26.7412 14.5688 26.7412C14.4119 26.7412 14.2847 26.8608 14.2847 27.0084C14.2847 27.156 14.4119 27.2756 14.5688 27.2756Z" fill="#2F2F2F"/>
</svg>
