<svg width="31" height="31" viewBox="0 0 31 31" fill="none" xmlns="http://www.w3.org/2000/svg">
<path d="M3.875 9.04163H7.75" stroke="#6C757D" stroke-width="1.5" stroke-linecap="round" stroke-linejoin="round"/>
<path d="M3.875 21.9584H11.625" stroke="#6C757D" stroke-width="1.5" stroke-linecap="round" stroke-linejoin="round"/>
<path d="M23.25 21.9584H27.125" stroke="#6C757D" stroke-width="1.5" stroke-linecap="round" stroke-linejoin="round"/>
<path d="M19.375 9.04163H27.125" stroke="#6C757D" stroke-width="1.5" stroke-linecap="round" stroke-linejoin="round"/>
<path d="M7.75 9.04163C7.75 7.83795 7.75 7.23611 7.94664 6.76136C8.20884 6.12838 8.71175 5.62546 9.34473 5.36327C9.81948 5.16663 10.4213 5.16663 11.625 5.16663C12.8287 5.16663 13.4305 5.16663 13.9053 5.36327C14.5382 5.62546 15.0412 6.12838 15.3034 6.76136C15.5 7.23611 15.5 7.83795 15.5 9.04163C15.5 10.2453 15.5 10.8471 15.3034 11.3219C15.0412 11.9549 14.5382 12.4578 13.9053 12.72C13.4305 12.9166 12.8287 12.9166 11.625 12.9166C10.4213 12.9166 9.81948 12.9166 9.34473 12.72C8.71175 12.4578 8.20884 11.9549 7.94664 11.3219C7.75 10.8471 7.75 10.2453 7.75 9.04163Z" stroke="#6C757D" stroke-width="1.5"/>
<path d="M15.5 21.9584C15.5 20.7547 15.5 20.1529 15.6966 19.6781C15.9588 19.0451 16.4618 18.5422 17.0947 18.28C17.5695 18.0834 18.1713 18.0834 19.375 18.0834C20.5787 18.0834 21.1805 18.0834 21.6553 18.28C22.2882 18.5422 22.7912 19.0451 23.0534 19.6781C23.25 20.1529 23.25 20.7547 23.25 21.9584C23.25 23.1621 23.25 23.7639 23.0534 24.2387C22.7912 24.8716 22.2882 25.3746 21.6553 25.6368C21.1805 25.8334 20.5787 25.8334 19.375 25.8334C18.1713 25.8334 17.5695 25.8334 17.0947 25.6368C16.4618 25.3746 15.9588 24.8716 15.6966 24.2387C15.5 23.7639 15.5 23.1621 15.5 21.9584Z" stroke="#6C757D" stroke-width="1.5"/>
</svg>
