<svg width="37" height="37" viewBox="0 0 37 37" fill="none" xmlns="http://www.w3.org/2000/svg">
<path d="M35.1846 18.8626C33.8983 16.5073 33.0658 13.6493 31.9558 11.0138C34.8031 10.5933 37.1271 7.67747 36.523 4.50263C35.9275 1.38263 31.8748 -1.17979 29.1605 1.02005C28.0823 1.8945 27.4377 2.71107 26.9116 3.97247C26.8654 4.08216 26.8105 4.19794 26.7498 4.31982C24.2465 2.85427 21.3732 2.11692 18.4999 2.11692C15.6238 2.11692 12.7563 2.85731 10.2501 4.31982C10.1894 4.19794 10.1345 4.08216 10.0882 3.97247C9.55633 2.71107 8.9175 1.8945 7.83641 1.02005C5.125 -1.17675 1.06945 1.38263 0.476876 4.50263C-0.127264 7.67747 2.19391 10.5964 5.04406 11.0138C3.93695 13.6493 3.10445 16.5043 1.81234 18.8626C-0.864374 23.7558 -0.329608 29.0056 3.7375 32.8355C6.235 35.1816 9.47539 36.1993 12.8516 36.5923C14.7248 36.8086 16.6413 36.83 18.4999 36.7782C20.3557 36.83 22.2693 36.8086 24.1453 36.5923C27.5216 36.1993 30.7591 35.1816 33.2595 32.8355C37.3295 29.0056 37.8642 23.7558 35.1846 18.8626Z" fill="#F79329"/>
<path d="M15.6556 29.5815C15.459 30.5352 15.8348 31.6869 16.0343 32.5918C16.1354 33.058 16.2655 33.6308 16.5979 33.9233C16.7916 34.1 17.0171 34.1579 17.2483 34.1732C17.7137 34.1975 18.1647 34.3194 18.4075 33.6735C18.474 33.4998 18.5925 33.2104 18.7717 33.381C18.9365 33.5425 18.8786 33.8228 19.0694 33.9782C19.6591 34.4474 20.5928 34.295 20.9165 33.4358C21.2836 32.4547 21.3675 31.4523 21.5293 30.4164L20.7229 29.0544L18.4711 28.3536L15.6556 29.5815Z" fill="#F5F5F5"/>
<path d="M11.577 21.6658C11.5741 23.2319 10.626 24.4933 9.47549 24.4902C8.31924 24.478 7.38267 23.2075 7.38845 21.6322C7.40002 20.0692 8.34236 18.8017 9.49861 18.8108C10.6491 18.8169 11.5856 20.0997 11.577 21.6658ZM25.426 21.6658C25.4288 23.2319 26.3741 24.4933 27.5274 24.4902C28.6837 24.478 29.6203 23.2075 29.6145 21.6322C29.6029 20.0692 28.6577 18.8017 27.5043 18.8108C26.351 18.8169 25.4173 20.0997 25.426 21.6658ZM24.316 28.96C24.0471 28.4085 23.2695 28.8838 22.862 28.9965C22.5642 29.0758 22.2434 29.0514 21.9283 29.0514C21.3155 29.0514 20.6882 29.0179 20.1159 28.765C19.9106 28.6736 19.6216 28.5304 19.4915 28.3232C19.0868 27.6925 19.61 26.364 18.844 25.974C18.4191 25.7577 17.9479 25.9832 17.8525 26.4189C17.812 26.6108 17.7774 26.8302 17.7831 27.0283C17.7947 27.2324 17.7513 27.3634 17.7224 27.5706C17.7022 27.7169 17.7022 27.8235 17.6588 27.9515C17.5895 28.1617 17.4189 28.4054 17.2339 28.5426C16.8119 28.8594 16.3378 29.0514 15.8378 29.1489C15.3001 29.2494 14.722 29.219 14.2132 29.0636C13.8635 28.9569 13.479 28.5944 13.1206 28.5913C12.791 28.5883 12.5974 28.8899 12.6205 29.2098C12.6783 29.9624 13.4067 30.2122 13.9849 30.4042C14.8434 30.6876 15.8088 30.6906 16.6616 30.3707C17.179 30.1757 17.7195 29.9228 18.2774 29.8222C18.8238 29.7247 19.1417 29.9746 19.6418 30.1208C20.191 30.2854 20.7085 30.52 21.2808 30.587C21.8705 30.6571 22.4746 30.5901 23.0441 30.4042C23.5037 30.2519 24.5241 29.874 24.3824 29.158C24.3651 29.0819 24.342 29.0148 24.316 28.96Z" fill="#2F2F2F"/>
<path d="M16.147 24.152C15.5833 24.1489 15.2307 24.3774 15.6065 25.2184C16.384 26.9551 18.5896 27.7442 20.1534 26.7113C20.4078 26.5437 20.7373 26.3488 20.9512 26.1294C21.2172 25.8613 21.4051 25.3981 21.5265 25.0386C21.6797 24.5968 21.7057 24.0088 21.1594 23.9082C20.7315 23.829 20.3066 24.2007 19.9048 24.3013C19.3701 24.4414 18.7023 24.5023 18.1531 24.5023C17.8207 24.5054 16.835 24.158 16.147 24.152Z" fill="#2F2F2F"/>
<path d="M8.2961 6.53802C8.21516 6.78482 8.08508 7.04076 7.94633 7.2449C7.71219 7.58919 7.50696 8.02185 7.14852 8.24732C6.77563 8.47888 6.21774 8.25037 5.84774 8.09193C5.35055 7.87865 4.77821 7.57091 4.43712 7.12302C4.25936 6.89686 4.11423 6.6443 4.00641 6.37349C3.51501 5.06029 4.79844 3.60693 6.03274 3.91771C6.64555 4.0731 7.15719 4.50271 7.57923 4.98107C7.77579 5.20654 7.93188 5.41982 8.0504 5.69709C8.15735 5.94388 8.36258 6.18763 8.31055 6.47099C8.31055 6.49232 8.30477 6.51669 8.2961 6.53802ZM30.2591 8.24732C29.9006 8.0249 29.6925 7.58919 29.4555 7.2449C29.3196 7.04076 29.1924 6.78177 29.1115 6.53802L29.0941 6.47099C29.0421 6.18459 29.2445 5.94388 29.3543 5.69709C29.4728 5.41982 29.626 5.20654 29.8255 4.98107C30.2475 4.50271 30.762 4.0731 31.372 3.91771C32.6034 3.60693 33.8897 5.06334 33.3925 6.37349C33.2913 6.64771 33.141 6.89146 32.9676 7.12302C32.6265 7.57091 32.0513 7.87865 31.557 8.09193C31.1898 8.25037 30.632 8.47888 30.2591 8.24732Z" fill="#F5F5F5"/>
</svg>
