<svg width="31" height="30" viewBox="0 0 31 30" fill="none" xmlns="http://www.w3.org/2000/svg">
    <path
        d="M7.7516 26.25C6.26271 26.25 5.05566 25.025 5.05566 23.5125V12.51C5.05566 11.6787 5.42852 10.8912 6.0668 10.3725L13.4822 4.34998C13.956 3.96196 14.5519 3.74963 15.167 3.74963C15.7822 3.74963 16.378 3.96196 16.8518 4.34998L24.266 10.3725C24.9055 10.8912 25.2784 11.6787 25.2784 12.51V23.5125C25.2784 25.025 24.0713 26.25 22.5824 26.25H7.7516Z"
        stroke="#333333" stroke-width="1.75" stroke-linecap="round" stroke-linejoin="round" />
    <path
        d="M12.0072 26.25V19.375C12.0072 18.712 12.2735 18.0761 12.7476 17.6072C13.2217 17.1384 13.8646 16.875 14.535 16.875H15.799C16.4694 16.875 17.1123 17.1384 17.5864 17.6072C18.0605 18.0761 18.3268 18.712 18.3268 19.375V26.25"
        stroke="#333333" stroke-width="1.75" stroke-linecap="round" stroke-linejoin="round" />
</svg>