<svg width="15" height="17" viewBox="0 0 15 17" fill="none" xmlns="http://www.w3.org/2000/svg">
<path fill-rule="evenodd" clip-rule="evenodd" d="M3.31201 7.03382C3.31201 6.06851 3.75325 5.14273 4.53867 4.46015C5.32408 3.77757 6.38933 3.3941 7.50007 3.3941C8.61081 3.3941 9.67606 3.77757 10.4615 4.46015C11.2469 5.14273 11.6881 6.06851 11.6881 7.03382C11.6881 7.99914 11.2469 8.92491 10.4615 9.60749C9.67606 10.2901 8.61081 10.6735 7.50007 10.6735C6.38933 10.6735 5.32408 10.2901 4.53867 9.60749C3.75325 8.92491 3.31201 7.99914 3.31201 7.03382ZM7.50007 4.54349C6.74009 4.54349 6.01124 4.80586 5.47385 5.27289C4.93646 5.73992 4.63456 6.37334 4.63456 7.03382C4.63456 7.6943 4.93646 8.32773 5.47385 8.79475C6.01124 9.26178 6.74009 9.52416 7.50007 9.52416C8.26005 9.52416 8.98891 9.26178 9.5263 8.79475C10.0637 8.32773 10.3656 7.6943 10.3656 7.03382C10.3656 6.37334 10.0637 5.73992 9.5263 5.27289C8.98891 4.80586 8.26005 4.54349 7.50007 4.54349Z" fill="black"/>
<path fill-rule="evenodd" clip-rule="evenodd" d="M0.0267377 6.15798C0.177839 4.56951 1.01055 3.08846 2.35962 2.00871C3.70869 0.928955 5.47554 0.32942 7.30955 0.329071H7.69045C9.52446 0.32942 11.2913 0.928955 12.6404 2.00871C13.9895 3.08846 14.8222 4.56951 14.9733 6.15798C15.1413 7.92752 14.5123 9.68465 13.2187 11.059L8.99271 15.55C8.81186 15.7422 8.58412 15.8971 8.32597 16.0034C8.06781 16.1098 7.78569 16.1649 7.5 16.1649C7.21431 16.1649 6.93219 16.1098 6.67403 16.0034C6.41588 15.8971 6.18814 15.7422 6.00729 15.55L1.78131 11.059C0.487719 9.68465 -0.141343 7.92752 0.0267377 6.15798ZM7.30955 1.47846C5.80769 1.47901 4.36092 1.97012 3.25622 2.85438C2.15153 3.73864 1.46962 4.95145 1.34576 6.25223C1.20582 7.7249 1.7293 9.18725 2.80585 10.331L7.03182 14.8228C7.08863 14.8832 7.16019 14.9319 7.24131 14.9654C7.32243 14.9988 7.4111 15.0162 7.50088 15.0162C7.59067 15.0162 7.67933 14.9988 7.76046 14.9654C7.84158 14.9319 7.91314 14.8832 7.96995 14.8228L12.1959 10.331C13.2718 9.18703 13.7947 7.72469 13.6542 6.25223C13.5304 4.95132 12.8483 3.7384 11.7435 2.85412C10.6386 1.96984 9.19159 1.47881 7.68957 1.47846H7.30955Z" fill="black"/>
</svg>
