<svg width="20" height="22" viewBox="0 0 20 22" fill="none" xmlns="http://www.w3.org/2000/svg">
<path d="M16.7501 8.71V8.005C16.7501 4.136 13.7261 1 10.0001 1C6.27406 1 3.25006 4.136 3.25006 8.005V8.71C3.25127 9.55155 3.01111 10.3758 2.55806 11.085L1.45006 12.81C0.439062 14.385 1.21106 16.526 2.97006 17.024C7.56635 18.3257 12.4338 18.3257 17.0301 17.024C18.7891 16.526 19.5611 14.385 18.5501 12.811L17.4421 11.086C16.9887 10.3769 16.7482 9.55265 16.7491 8.711L16.7501 8.71Z" fill="#FFC024" stroke="black" stroke-width="1.5"/>
<path d="M5.5 18C6.155 19.748 7.922 21 10 21C12.078 21 13.845 19.748 14.5 18" fill="#FFC024"/>
<path d="M5.5 18C6.155 19.748 7.922 21 10 21C12.078 21 13.845 19.748 14.5 18" stroke="black" stroke-width="1.5" stroke-linecap="round"/>
</svg>
