<svg width="36" height="36" viewBox="0 0 36 36" fill="none" xmlns="http://www.w3.org/2000/svg">
<path d="M8.875 8.125C8.875 5.992 10.417 4 12.625 4C14.833 4 16.375 5.992 16.375 8.125C16.375 10.258 14.833 12.25 12.625 12.25C10.417 12.25 8.875 10.258 8.875 8.125ZM1 13.375C1 11.242 2.542 9.25 4.75 9.25C6.958 9.25 8.5 11.242 8.5 13.375C8.5 15.508 6.958 17.5 4.75 17.5C2.542 17.5 1 15.508 1 13.375ZM17.5 15.25C14.7152 15.25 12.0445 16.3562 10.0754 18.3254C8.10625 20.2945 7 22.9652 7 25.75C7 27.79 8.08 29.332 9.55 30.316C10.9945 31.2835 12.847 31.75 14.617 31.75H20.383C22.153 31.75 24.0055 31.2835 25.4485 30.316C26.92 29.332 28 27.7915 28 25.75C28 22.9652 26.8938 20.2945 24.9246 18.3254C22.9555 16.3562 20.2848 15.25 17.5 15.25ZM18.625 8.125C18.625 5.992 20.167 4 22.375 4C24.583 4 26.125 5.992 26.125 8.125C26.125 10.258 24.583 12.25 22.375 12.25C20.167 12.25 18.625 10.258 18.625 8.125ZM26.5 13.375C26.5 11.242 28.042 9.25 30.25 9.25C32.458 9.25 34 11.242 34 13.375C34 15.508 32.458 17.5 30.25 17.5C28.042 17.5 26.5 15.508 26.5 13.375Z" fill="#275D2F"/>
</svg>
