<svg width="22" height="22" viewBox="0 0 22 22" fill="none" xmlns="http://www.w3.org/2000/svg">
<path d="M20.4336 1.63099C19.2386 0.435986 17.5511 0.247986 15.5586 0.247986H6.41807C4.44957 0.247986 2.76207 0.435486 1.56657 1.63099C0.371069 2.82649 0.195068 4.50199 0.195068 6.45899V15.506C0.195068 17.51 0.370568 19.174 1.56607 20.369C2.76157 21.564 4.44907 21.752 6.45257 21.752H15.5581C17.5506 21.752 19.2381 21.5645 20.4331 20.369C21.6286 19.174 21.8041 17.51 21.8041 15.506V6.49399C21.8041 4.48999 21.6291 2.81399 20.4336 1.63099ZM19.9176 6.16599V15.8225C19.9176 17.041 19.7651 18.283 19.0626 18.998C18.3476 19.701 17.0816 19.865 15.8746 19.865H6.12457C4.91757 19.865 3.65207 19.701 2.94907 18.998C2.23407 18.283 2.08157 17.041 2.08157 15.822V6.20149C2.08157 4.97149 2.23407 3.70549 2.93707 3.00249C3.65207 2.28749 4.92907 2.13549 6.15957 2.13549H15.8746C17.0816 2.13549 18.3471 2.29949 19.0621 3.00249C19.7651 3.71749 19.9176 4.95899 19.9176 6.16599ZM11.0001 17.252C11.4691 17.252 11.8441 16.8885 11.8441 16.42V11.838H16.4261C16.8946 11.838 17.2696 11.4395 17.2696 11.006C17.2696 10.549 16.8946 10.162 16.4261 10.162H11.8441V5.56849C11.8441 5.09949 11.4691 4.73649 11.0001 4.73649C10.8904 4.73487 10.7814 4.75528 10.6798 4.79652C10.5781 4.83776 10.4857 4.89899 10.4082 4.97657C10.3306 5.05415 10.2693 5.14652 10.2281 5.24819C10.1869 5.34986 10.1665 5.45878 10.1681 5.56849V10.162H5.58607C5.11707 10.162 4.74207 10.549 4.74207 11.006C4.74207 11.4395 5.11707 11.838 5.58607 11.838H10.1681V16.42C10.1681 16.8885 10.5316 17.252 11.0001 17.252Z" fill="#333333"/>
</svg>
