<svg width="23" height="22" viewBox="0 0 23 22" fill="none" xmlns="http://www.w3.org/2000/svg">
<path d="M1.05566 18.5C1.05566 17.1739 1.58831 15.9021 2.53644 14.9645C3.48456 14.0268 4.77049 13.5 6.11134 13.5H16.2227C17.5635 13.5 18.8495 14.0268 19.7976 14.9645C20.7457 15.9021 21.2784 17.1739 21.2784 18.5C21.2784 19.163 21.012 19.7989 20.538 20.2678C20.0639 20.7366 19.4209 21 18.7505 21H3.5835C2.91308 21 2.27011 20.7366 1.79605 20.2678C1.32199 19.7989 1.05566 19.163 1.05566 18.5Z" stroke="#333333" stroke-width="1.75" stroke-linejoin="round"/>
<path d="M11.167 8.5C13.2611 8.5 14.9588 6.82107 14.9588 4.75C14.9588 2.67893 13.2611 1 11.167 1C9.07287 1 7.37524 2.67893 7.37524 4.75C7.37524 6.82107 9.07287 8.5 11.167 8.5Z" stroke="#333333" stroke-width="1.75"/>
</svg>
