<svg width="36" height="36" viewBox="0 0 36 36" fill="none" xmlns="http://www.w3.org/2000/svg">
<path fill-rule="evenodd" clip-rule="evenodd" d="M19.6751 6.01307C19.8391 5.62694 19.9112 5.20804 19.8859 4.78931C19.8605 4.37057 19.7383 3.96344 19.5289 3.59995C19.3422 3.27764 19.091 2.99734 18.7909 2.77659C18.4909 2.55583 18.1486 2.39938 17.7853 2.31701C17.4221 2.23464 17.0457 2.22814 16.6798 2.2979C16.3139 2.36766 15.9664 2.51219 15.6589 2.72245L9.73127 6.78145C6.7444 7.09982 4.17602 8.68045 2.95877 11.3591C2.89577 11.4986 2.8339 11.6471 2.77877 11.7764L2.77652 11.7843L1.5964 14.6249C1.28315 15.3652 1.12281 16.1611 1.12502 16.9649C1.12681 18.4324 1.71053 19.8392 2.74816 20.8768C3.78579 21.9144 5.1926 22.4982 6.66002 22.4999H9.03377V30.5684C8.37675 30.8025 7.80801 31.2337 7.40529 31.8031C7.00257 32.3726 6.78551 33.0525 6.78377 33.7499C6.78377 34.0483 6.9023 34.3345 7.11328 34.5454C7.32426 34.7564 7.6104 34.8749 7.90877 34.8749H24.7163C25.9445 34.8737 27.1415 34.4882 28.1396 33.7724C29.1376 33.0566 29.8866 32.0464 30.2816 30.8834C30.4886 30.2767 30.6975 29.6669 30.9083 29.0542C31.3594 27.7469 31.815 26.4262 32.2414 25.1066L32.2459 25.0908L32.2515 25.0739C32.497 24.2379 32.6227 23.3713 32.625 22.4999C32.6189 21.6017 32.4906 20.7085 32.2436 19.8449C32.905 19.5429 33.4832 19.085 33.929 18.5106C34.3747 17.9362 34.6747 17.2624 34.8031 16.5468C34.9316 15.8312 34.8847 15.0951 34.6665 14.4015C34.4484 13.708 34.0654 13.0776 33.5505 12.5644C33.0355 12.0512 32.4038 11.6704 31.7095 11.4546C31.0152 11.2388 30.279 11.1944 29.5638 11.3253C28.8487 11.4562 28.1758 11.7584 27.603 12.2061C27.0301 12.6538 26.5742 13.2336 26.2744 13.8959C25.416 13.6325 24.523 13.499 23.625 13.4999H22.0669C22.5823 13.4986 23.0922 13.3933 23.5659 13.1902C24.0397 12.9871 24.4676 12.6905 24.8239 12.3181C25.1803 11.9457 25.4578 11.5052 25.6398 11.0229C25.8219 10.5407 25.9047 10.0267 25.8833 9.51171C25.8619 8.99672 25.7368 8.49134 25.5155 8.02585C25.2941 7.56037 24.9811 7.14436 24.5951 6.80276C24.2091 6.46115 23.7581 6.20099 23.2692 6.03784C22.7803 5.8747 22.2634 5.81194 21.7496 5.85332L19.6751 6.01307Z" fill="#9B9B9B"/>
<path d="M10.125 7.87493L21.8363 6.97493C22.1998 6.94522 22.5655 6.98933 22.9115 7.10463C23.2576 7.21992 23.5767 7.40401 23.8497 7.64583C24.1228 7.88764 24.3441 8.18218 24.5003 8.51173C24.6566 8.84128 24.7446 9.19904 24.759 9.56347C24.7734 9.92791 24.714 10.2915 24.5843 10.6324C24.4545 10.9732 24.2572 11.2844 24.0041 11.547C23.7511 11.8096 23.4475 12.0184 23.1117 12.1607C22.7759 12.3029 22.4147 12.3758 22.05 12.3749H16.4925C16.74 13.0837 16.875 13.8374 16.875 14.6249H23.625C24.8423 14.6249 25.9931 14.9006 27.0191 15.3911C27.0869 14.7574 27.3328 14.1559 27.7282 13.6561C28.1236 13.1563 28.6524 12.7787 29.2535 12.5669C29.8546 12.3551 30.5034 12.3179 31.1247 12.4595C31.7461 12.601 32.3147 12.9156 32.7647 13.3669C33.2147 13.8181 33.5278 14.3876 33.6677 15.0093C33.8076 15.6311 33.7685 16.2797 33.5551 16.8803C33.3417 17.4808 32.9627 18.0086 32.4618 18.4026C31.9609 18.7967 31.3587 19.0409 30.7249 19.1069C31.1704 19.8112 31.5 21.2737 31.5 22.4999C31.5 23.2683 31.3841 24.0232 31.1704 24.7612C30.5471 26.6894 29.8687 28.6019 29.2162 30.5212C28.8969 31.4617 28.2913 32.2786 27.4844 32.8577C26.6774 33.4367 25.7095 33.7487 24.7162 33.7499H15.75C15.75 32.5124 16.7625 31.4999 18 31.4999H18.7875C18.9788 31.4999 19.1362 31.3424 19.1362 31.1512V30.3749H15.7837L14.985 32.7599C14.7825 33.3562 14.2313 33.7499 13.6125 33.7499H7.90875C7.90875 32.5124 8.92125 31.4999 10.1587 31.4999V21.3749H6.66C4.23 21.3749 2.25 19.3949 2.25 16.9649C2.25 16.3124 2.37375 15.6599 2.6325 15.0637L3.81375 12.2174C3.87 12.0824 3.92625 11.9474 3.9825 11.8237C5.04 9.49494 7.335 8.08868 10.125 7.87493Z" fill="#F5F5F5"/>
<path d="M21.9263 8.08875H22.05C22.9388 8.08875 23.6588 8.83124 23.6138 9.73124C23.58 10.5862 22.8488 11.25 21.9938 11.25H14.0738C13.9959 11.2489 13.9193 11.2302 13.8497 11.1954C13.7801 11.1605 13.7192 11.1104 13.6716 11.0488C13.624 10.9871 13.591 10.9156 13.5749 10.8394C13.5588 10.7632 13.5602 10.6843 13.5788 10.6087C13.7127 10.054 14.0189 9.55596 14.4534 9.18608C14.888 8.8162 15.4286 8.59351 15.9975 8.54999L21.9263 8.08875ZM2.25005 16.965C2.38505 16.9087 2.5313 16.875 2.67755 16.875C3.30755 16.875 3.80255 17.3812 3.80255 18C3.80255 18.5737 3.37505 19.0462 2.81255 19.1137C2.44048 18.459 2.24654 17.7181 2.25005 16.965Z" fill="#FF8687"/>
<path d="M7.66125 16.4475C7.78092 16.4475 7.89941 16.4239 8.00997 16.3781C8.12053 16.3323 8.22098 16.2652 8.3056 16.1806C8.39022 16.096 8.45734 15.9955 8.50314 15.885C8.54893 15.7744 8.5725 15.6559 8.5725 15.5363C8.5725 15.4166 8.54893 15.2981 8.50314 15.1875C8.45734 15.077 8.39022 14.9765 8.3056 14.8919C8.22098 14.8073 8.12053 14.7402 8.00997 14.6944C7.89941 14.6486 7.78092 14.625 7.66125 14.625C7.41957 14.625 7.18779 14.721 7.0169 14.8919C6.84601 15.0628 6.75 15.2946 6.75 15.5363C6.75 15.7779 6.84601 16.0097 7.0169 16.1806C7.18779 16.3515 7.41957 16.4475 7.66125 16.4475Z" fill="#1C1C1C"/>
</svg>
