<svg width="17" height="16" viewBox="0 0 17 16" fill="none" xmlns="http://www.w3.org/2000/svg">
<path d="M16.0302 14.52L11.2445 10.22M1.6731 6.63666C1.6731 7.29546 1.81751 7.94781 2.0981 8.55646C2.37869 9.16511 2.78996 9.71814 3.30842 10.184C3.82688 10.6498 4.44238 11.0193 5.11978 11.2715C5.79718 11.5236 6.52322 11.6533 7.25643 11.6533C7.98964 11.6533 8.71568 11.5236 9.39308 11.2715C10.0705 11.0193 10.686 10.6498 11.2044 10.184C11.7229 9.71814 12.1342 9.16511 12.4148 8.55646C12.6953 7.94781 12.8398 7.29546 12.8398 6.63666C12.8398 5.97786 12.6953 5.32552 12.4148 4.71687C12.1342 4.10822 11.7229 3.55518 11.2044 3.08934C10.686 2.6235 10.0705 2.25398 9.39308 2.00187C8.71568 1.74975 7.98964 1.62 7.25643 1.62C6.52322 1.62 5.79718 1.74975 5.11978 2.00187C4.44238 2.25398 3.82688 2.6235 3.30842 3.08934C2.78996 3.55518 2.37869 4.10822 2.0981 4.71687C1.81751 5.32552 1.6731 5.97786 1.6731 6.63666Z" stroke="#6C757D" stroke-width="1.5" stroke-linecap="round" stroke-linejoin="round"/>
</svg>
