<svg width="22" height="22" viewBox="0 0 22 22" fill="none" xmlns="http://www.w3.org/2000/svg">
<path d="M1.7915 10V13C1.7915 16.771 1.7915 18.657 3.06117 19.828C4.33084 20.999 6.37292 21 10.4582 21H11.5415C15.6268 21 17.6699 21 18.9385 19.828C20.2071 18.656 20.2082 16.771 20.2082 13V10" fill="#4F9451"/>
<path d="M1.7915 10V13C1.7915 16.771 1.7915 18.657 3.06117 19.828C4.33084 20.999 6.37292 21 10.4582 21H11.5415C15.6268 21 17.6699 21 18.9385 19.828C20.2071 18.656 20.2082 16.771 20.2082 13V10" stroke="black" stroke-width="1.5"/>
<path d="M8.29143 1H13.7081L14.4144 7.517C14.461 7.95677 14.4073 8.40065 14.2569 8.82013C14.1064 9.2396 13.8626 9.62537 13.541 9.95265C13.2194 10.2799 12.8271 10.5415 12.3895 10.7204C11.9518 10.8994 11.4784 10.9919 10.9998 10.9919C10.5211 10.9919 10.0477 10.8994 9.61005 10.7204C9.1724 10.5415 8.78016 10.2799 8.45856 9.95265C8.13695 9.62537 7.89309 9.2396 7.74267 8.82013C7.59224 8.40065 7.53856 7.95677 7.5851 7.517L8.29143 1Z" fill="white" stroke="black" stroke-width="1.5"/>
<path d="M1.60736 4.351C1.8002 3.461 1.89661 3.016 2.0927 2.655C2.29701 2.27904 2.58468 1.94694 2.93705 1.68025C3.28941 1.41356 3.69859 1.21826 4.13803 1.107C4.56053 1 5.05236 1 6.03603 1H8.29153L7.50611 8.245C7.46466 8.65963 7.33197 9.06209 7.11617 9.42774C6.90037 9.79339 6.60599 10.1145 6.25106 10.3715C5.89613 10.6285 5.48811 10.8159 5.05199 10.9223C4.61587 11.0287 4.16081 11.0518 3.71469 10.9901C3.26856 10.9285 2.84075 10.7835 2.45744 10.564C2.07413 10.3445 1.7434 10.0551 1.48547 9.71345C1.22755 9.37184 1.04787 8.98523 0.957439 8.5773C0.867004 8.16936 0.867715 7.74867 0.959529 7.341L1.60736 4.351ZM20.3924 4.351C20.1995 3.461 20.1031 3.016 19.907 2.655C19.7027 2.27904 19.415 1.94694 19.0627 1.68025C18.7103 1.41356 18.3011 1.21826 17.8617 1.107C17.4392 1 16.9474 1 15.9637 1H13.7082L14.4936 8.245C14.5351 8.65963 14.6677 9.06209 14.8836 9.42774C15.0994 9.79339 15.3937 10.1145 15.7487 10.3715C16.1036 10.6285 16.5116 10.8159 16.9477 10.9223C17.3839 11.0287 17.8389 11.0518 18.285 10.9901C18.7312 10.9285 19.159 10.7835 19.5423 10.564C19.9256 10.3445 20.2563 10.0551 20.5142 9.71345C20.7722 9.37184 20.9518 8.98523 21.0423 8.5773C21.1327 8.16936 21.132 7.74867 21.0402 7.341L20.3924 4.351Z" fill="#E75A70" stroke="black" stroke-width="1.5"/>
<path d="M8.2915 20.5V17.5C8.2915 16.565 8.2915 16.098 8.50925 15.75C8.65187 15.522 8.85699 15.3326 9.104 15.201C9.481 15 9.98692 15 10.9998 15C12.0128 15 12.5187 15 12.8957 15.201C13.1427 15.3326 13.3478 15.522 13.4904 15.75C13.7082 16.098 13.7082 16.565 13.7082 17.5V20.5" fill="white"/>
<path d="M8.2915 20.5V17.5C8.2915 16.565 8.2915 16.098 8.50925 15.75C8.65187 15.522 8.85699 15.3326 9.104 15.201C9.481 15 9.98692 15 10.9998 15C12.0128 15 12.5187 15 12.8957 15.201C13.1427 15.3326 13.3478 15.522 13.4904 15.75C13.7082 16.098 13.7082 16.565 13.7082 17.5V20.5" stroke="black" stroke-width="1.5" stroke-linecap="round"/>
</svg>
