<svg width="24" height="24" viewBox="0 0 24 24" fill="none" xmlns="http://www.w3.org/2000/svg">
<rect x="0.5" y="0.5" width="23" height="23" rx="1.5" stroke="white"/>
<rect x="3" y="6" width="9" height="13" fill="#D558FF"/>
<rect x="12" y="6" width="9" height="13" fill="#D558FF"/>
<path d="M7.65465 20.4331C7.27888 20.7585 6.72112 20.7585 6.34535 20.433L5.56347 19.7559C4.86357 19.1498 5.29224 18 6.21813 18L7.78188 18C8.70777 18 9.13643 19.1498 8.43653 19.7559L7.65465 20.4331Z" fill="#D558FF"/>
<path d="M14.7769 21.0485C14.4171 21.4312 13.8226 21.4703 13.4158 21.1381L12.301 20.2276C11.5978 19.6534 11.962 18.5148 12.8679 18.4552L14.9686 18.3171C15.8745 18.2575 16.3847 19.3385 15.7628 19.9999L14.7769 21.0485Z" fill="#D558FF"/>
<path d="M10.8924 20.8757C10.708 21.3852 10.1514 21.6551 9.63713 21.4844L8.30835 21.0435C7.45662 20.7608 7.3795 19.5862 8.18696 19.1946L9.99229 18.3191C10.7998 17.9275 11.6744 18.7154 11.3689 19.5593L10.8924 20.8757Z" fill="#D558FF"/>
<path d="M15.3647 17.8929C15.6396 17.426 16.2363 17.263 16.7104 17.5253L17.9355 18.203C18.7208 18.6374 18.5807 19.8062 17.715 20.0427L15.7795 20.5714C14.9138 20.8079 14.1989 19.8726 14.6543 19.0993L15.3647 17.8929Z" fill="#D558FF"/>
<rect x="3" y="3" width="5" height="3" fill="#D558FF"/>
<rect x="16" y="3" width="5" height="3" fill="#D558FF"/>
<path d="M9.07095 7.81049L6.06364 4.07398L13.5109 5.99599L9.07095 7.81049Z" fill="#D558FF"/>
<path d="M15.3722 6.96403L10.851 5.36274L18.1984 3.08872L15.3722 6.96403Z" fill="#D558FF"/>
<path fill-rule="evenodd" clip-rule="evenodd" d="M1 2.333V19.744L12 23.044L23 19.744V2.334L21.265 1.177L12 3.957L2.735 1.177L1 2.333ZM12 6.044L3 3.344V18.256L11 20.656V9.251L13 8.651V20.656L21 18.256V3.344L12 6.044ZM19 6.856L15 8.056V10.144L19 8.944V6.856Z" fill="black"/>
<path fill-rule="evenodd" clip-rule="evenodd" d="M1 2.333V19.744L12 23.044L23 19.744V2.334L21.265 1.177L12 3.957L2.735 1.177L1 2.333ZM12 6.044L3 3.344V18.256L11 20.656V9.251L13 8.651V20.656L21 18.256V3.344L12 6.044ZM19 6.856L15 8.056V10.144L19 8.944V6.856Z" fill="black"/>
</svg>
